<svg id="Layer_1" data-name="Layer 1" xmlns="http://www.w3.org/2000/svg" width="31.35" height="32" viewBox="0 0 31.35 32"><defs><style>.cls-1{fill:#2484c6;fill-rule:evenodd;}</style></defs><path class="cls-1" d="M29.62,0H10.38A6.06,6.06,0,0,0,4.32,6.06V25.94A6.06,6.06,0,0,0,10.38,32H29.62a6.06,6.06,0,0,0,6.06-6.06V6.06A6.06,6.06,0,0,0,29.62,0ZM9.87,22.5c-2.31.13-3.11-1.28-2.31-4L10.14,10h3.1l-2.45,7.78c-.31.81-.12,1.18.6,1.13h4.25L18.48,10h3.23L17.82,22.5Zm22.19-9.25H25.59a5.91,5.91,0,0,0-1,0,1.34,1.34,0,0,0-.75.55c0,.41,0,.63.31.68a6,6,0,0,0,1.12.08h3.23a2.65,2.65,0,0,1,2.42,1.18,4,4,0,0,1,0,3A6.06,6.06,0,0,1,29,21.49a5.56,5.56,0,0,1-3.43.94H18.35l1-3.23h6.74a10.29,10.29,0,0,0,1.36,0c.31,0,.57-.27.78-.71s0-.55-.34-.62a5.48,5.48,0,0,0-1.34-.11H23.47c-1.35,0-2.23-.34-2.65-1.05a3.68,3.68,0,0,1,0-2.91A5.93,5.93,0,0,1,22.75,11a6.14,6.14,0,0,1,3.38-1h6.93Z" transform="translate(-4.32)"/></svg>