<svg xmlns="http://www.w3.org/2000/svg" xmlns:xlink="http://www.w3.org/1999/xlink" viewBox="0 0 2815.7 2926.42"><title>Sri Lankan IT Solution Provider| US LAYER</title><defs><style>.a{fill:none;}.b{fill:#f4f7fa;}.c{fill:#97a6b7;}.d{fill:#d8dee8;}.e{fill:url(#a);}.f{clip-path:url(#b);}.g{fill:#fcfdfe;}.h{fill:url(#c);}.i{clip-path:url(#d);}.j{fill:url(#e);}.k{fill:url(#f);}.l{fill:url(#g);}.m{fill:url(#h);}.n,.o{fill:#fff;}.o{opacity:0.48;}.ag,.ap,.o,.q,.u,.y{isolation:isolate;}.p{fill:url(#i);}.ap,.q,.u,.y{opacity:0.3;}.q{fill:url(#j);}.r{opacity:0.75;}.s{fill:url(#k);}.t{fill:url(#l);}.u{fill:url(#m);}.v{fill:url(#n);}.w{fill:url(#o);}.x{fill:url(#p);}.y{fill:url(#q);}.z{fill:url(#r);}.aa{fill:url(#s);}.ab{fill:url(#t);}.ac{fill:url(#u);}.ad{fill:url(#v);}.ae{fill:url(#w);}.af{fill:url(#x);}.ag{opacity:0.4;fill:url(#y);}.ah{fill:url(#z);}.ai{fill:url(#aa);}.aj{fill:url(#ab);}.ak{fill:url(#ac);}.al{fill:url(#ad);}.am{fill:url(#ae);}.an{fill:url(#af);}.ao{fill:url(#ag);}.ap{fill:url(#ah);}.aq{fill:url(#ai);}.ar{fill:url(#aj);}.as{fill:url(#ak);}.at{fill:url(#al);}.au{fill:url(#am);}</style><linearGradient id="a" x1="1727.44" y1="2378.07" x2="263.86" y2="583.11" gradientTransform="matrix(1, 0, 0, -1, 0, 3710)" gradientUnits="userSpaceOnUse"><stop offset="0" stop-color="#aa80f9"/><stop offset="0.2" stop-color="#9b7bf2"/><stop offset="1" stop-color="#6165d7"/></linearGradient><clipPath id="b" transform="translate(-447.15 -328.59)"><path class="a" d="M1193.28,2568.65c-23.25,38.54-63.76,90.86-107.62,151.54l732,106c-81.88-222.92-197.32-457-24.91-844.1,80.91-181.65,295.94-501,207.43-714-100.83-242.64-300.32-137.86-350.94-325.72-79.11-293.61-329-497.86-597.53-351.94-265,144-256.1,670.21,93.07,1245.84C1348.51,2277.63,1314.68,2367.41,1193.28,2568.65Z"/></clipPath><linearGradient id="c" x1="717.72" y1="2262.08" x2="1818.59" y2="449.77" gradientTransform="matrix(1, 0, 0, -1, 0, 3710)" gradientUnits="userSpaceOnUse"><stop offset="0" stop-color="#e38ddd"/><stop offset="1" stop-color="#9571f6"/></linearGradient><clipPath id="d" transform="translate(-447.15 -328.59)"><path class="a" d="M1198.12,1759.55c4,339.82,167.89,227.84,319,261.38,174.43,252.37,190.86,486.52-69.57,688.73l-290.18-43.43c-107.67-5-234-37.9-226.88-181.27,8.06-162.15,46.41-265.13-136.61-344.76S532.26,1915.27,606.38,1750c78-173.92-104.94-408.37,28.75-524.9C868.07,1022.05,1194,1405.7,1198.12,1759.55Z"/></clipPath><linearGradient id="e" x1="1717.61" y1="837.33" x2="1535.39" y2="760.8" gradientTransform="matrix(1, 0, 0, -1, 0, 3710)" gradientUnits="userSpaceOnUse"><stop offset="0" stop-color="#40447e"/><stop offset="1" stop-color="#3c3b6b"/></linearGradient><linearGradient id="f" x1="1421.12" y1="1647.44" x2="1232.18" y2="1568.08" xlink:href="#e"/><linearGradient id="g" x1="622.06" y1="1601.69" x2="2343.84" y2="1601.69" xlink:href="#e"/><linearGradient id="h" x1="732.65" y1="1046.62" x2="2480.47" y2="2469.89" gradientTransform="matrix(1, 0, 0, -1, 0, 3710)" gradientUnits="userSpaceOnUse"><stop offset="0" stop-color="#ffc444"/><stop offset="1" stop-color="#f36f56"/></linearGradient><linearGradient id="i" x1="622.05" y1="917.78" x2="3215.86" y2="917.78" xlink:href="#e"/><linearGradient id="j" x1="876.42" y1="939.24" x2="2776.88" y2="939.24" gradientTransform="matrix(1, 0, 0, -1, -447.15, 3381.41)" xlink:href="#e"/><linearGradient id="k" x1="2645.26" y1="3679.6" x2="2659.85" y2="265.2" gradientTransform="matrix(1, 0, 0, -1, 0, 3710)" gradientUnits="userSpaceOnUse"><stop offset="0" stop-color="#aa80f9"/><stop offset="1" stop-color="#6165d7"/></linearGradient><linearGradient id="l" x1="2652.06" y1="2279.92" x2="2654.09" y2="1804.93" gradientTransform="matrix(1, 0, 0, -1, -447.15, 3381.41)" gradientUnits="userSpaceOnUse"><stop offset="0" stop-color="#444b8c"/><stop offset="1" stop-color="#26264f"/></linearGradient><linearGradient id="m" x1="2699.9" y1="3674.12" x2="2714.45" y2="268.58" xlink:href="#k"/><linearGradient id="n" x1="2048.87" y1="2537.67" x2="2357.39" y2="2537.67" xlink:href="#l"/><linearGradient id="o" x1="2092.12" y1="2493.2" x2="3177.34" y2="2493.2" xlink:href="#k"/><linearGradient id="p" x1="6883.82" y1="2448.9" x2="7556.48" y2="2448.9" gradientTransform="translate(9720.11 3710) rotate(180)" xlink:href="#l"/><linearGradient id="q" x1="2823.17" y1="5498.86" x2="2846.04" y2="149.45" xlink:href="#k"/><linearGradient id="r" x1="2949.03" y1="2460.26" x2="3257.55" y2="2460.26" xlink:href="#l"/><linearGradient id="s" x1="1482.51" y1="1664.91" x2="1438.22" y2="888.68" xlink:href="#k"/><linearGradient id="t" x1="3360.05" y1="750.01" x2="3470.77" y2="750.01" gradientTransform="translate(5478.65 2957.56) rotate(164.63)" xlink:href="#l"/><linearGradient id="u" x1="3307.48" y1="694.11" x2="3354.17" y2="790.74" gradientTransform="translate(5353.29 3168.03) rotate(168.59)" xlink:href="#h"/><linearGradient id="v" x1="3533.49" y1="757.14" x2="3644.21" y2="757.14" gradientTransform="translate(5478.65 2957.56) rotate(164.63)" xlink:href="#l"/><linearGradient id="w" x1="3481" y1="689.26" x2="3527.69" y2="785.88" gradientTransform="translate(5353.29 3168.03) rotate(168.59)" xlink:href="#h"/><linearGradient id="x" x1="1288.21" y1="1676" x2="1243.92" y2="899.76" xlink:href="#k"/><linearGradient id="y" x1="1064.07" y1="1060.77" x2="1331.22" y2="1399.05" xlink:href="#k"/><linearGradient id="z" x1="1028.5" y1="1690.81" x2="984.21" y2="914.58" xlink:href="#k"/><linearGradient id="aa" x1="1446.68" y1="654.37" x2="1818.62" y2="1125.33" gradientTransform="matrix(1, 0, 0, -1, 0, 3710)" gradientUnits="userSpaceOnUse"><stop offset="0" stop-color="#ff9085"/><stop offset="1" stop-color="#fb6fbb"/></linearGradient><linearGradient id="ab" x1="1668.15" y1="1089.36" x2="1236.63" y2="611.37" xlink:href="#aa"/><linearGradient id="ac" x1="1465.12" y1="964.9" x2="1404.53" y2="1136.56" gradientTransform="matrix(1, 0, 0, -1, -447.15, 3381.41)" gradientUnits="userSpaceOnUse"><stop offset="0" stop-color="#311944"/><stop offset="1" stop-color="#893976"/></linearGradient><linearGradient id="ad" x1="1200.44" y1="1213.61" x2="1222.66" y2="1060.12" gradientTransform="matrix(1, 0, 0, -1, 0, 3710)" xlink:href="#ac"/><linearGradient id="ae" x1="1193.79" y1="1179.99" x2="1319.34" y2="1179.99" xlink:href="#h"/><linearGradient id="af" x1="1640.63" y1="1200.17" x2="1522.5" y2="1367.9" gradientTransform="matrix(1, 0, 0, -1, 0, 3710)" xlink:href="#l"/><linearGradient id="ag" x1="1414.04" y1="922.58" x2="1672.55" y2="1447.66" gradientTransform="matrix(1, 0, 0, -1, 0, 3710)" xlink:href="#ac"/><linearGradient id="ah" x1="1287.75" y1="1259.59" x2="1855.65" y2="1259.59" gradientTransform="matrix(1, 0, 0, -1, 0, 3710)" xlink:href="#ac"/><linearGradient id="ai" x1="1216.14" y1="1220.72" x2="1228.64" y2="1553.84" gradientTransform="matrix(0.92, 0.4, 0.4, -0.92, -427.1, 2789.27)" xlink:href="#h"/><linearGradient id="aj" x1="3852.27" y1="1430.56" x2="3767.48" y2="1645.91" gradientTransform="translate(4538.56 4400.31) rotate(-165.61)" gradientUnits="userSpaceOnUse"><stop offset="0" stop-color="#311944"/><stop offset="1" stop-color="#6b3976"/></linearGradient><linearGradient id="ak" x1="396.67" y1="1694.12" x2="392.77" y2="1379.93" gradientTransform="matrix(0.98, 0.19, 0.19, -0.98, 563.78, 3513.98)" xlink:href="#h"/><linearGradient id="al" x1="3826.37" y1="1420.25" x2="3741.5" y2="1635.81" xlink:href="#aj"/><linearGradient id="am" x1="3743.3" y1="1550.14" x2="3747.71" y2="1510.78" gradientTransform="translate(4538.56 4400.31) rotate(-165.61)" gradientUnits="userSpaceOnUse"><stop offset="0" stop-color="#ffc444"/><stop offset="1" stop-color="#f36f56"/></linearGradient></defs><path class="b" d="M3221.44,1651C3145.12,1151.43,2832.22,537.71,2214,473.48c0,0-469.35-57.09-932,29.44-274.6,51.35-515.38,204.22-667.74,423.92s-203.25,487.61-141.49,743c40.12,165.89,67.22,337.58,59.78,508.05-12.95,296.67-5.5,573.6,282.42,750.53,257.08,158,580.61,297.31,889.27,321.71,209.76,16.58,445-10.25,647.16-64.86C3381.71,2907,3297.76,2150.51,3221.44,1651Z" transform="translate(-447.15 -328.59)"/><path class="c" d="M2767.28,1186l-79.81.14a568.67,568.67,0,0,0-37-150.86l67.48-39.13c18.44-10.69,24.75-34.82,14.12-53.93l-28.35-51c-10.69-19.23-34.44-26.3-53.08-15.72L2584,913.31A586.5,586.5,0,0,0,2474,797l38.33-65.84c11-18.89,4.47-43.75-14.61-55.59l-51-31.65c-19.28-12-44-6.31-55.23,12.69l-38.42,65.17a596.78,596.78,0,0,0-159-48.47V596c0-22.8-18.75-42.13-42-43.19L2090.05,550c-23.5-1.07-42.62,16.74-42.62,39.79v78.13a604.08,604.08,0,0,0-166.45,38l-41.46-70.63c-12.18-20.76-39.24-28.8-60.48-17.91l-56.8,29.13c-21.48,11-28.85,36.94-16.43,57.83l43,72.26a599.77,599.77,0,0,0-124.65,118.15l-77.7-44c-22-12.46-50.3-6-63.1,14.5L1449.16,920c-12.89,20.64-5.24,47.43,17,59.76l80.4,44.49a574.2,574.2,0,0,0-43.9,163.92l-96.44.17c-26,0-47.07,19.72-47.07,43.94v64.42c0,24.22,21.11,43.6,47.07,43.27l99-1.23a568.63,568.63,0,0,0,48.33,159.37l-87.38,49.59c-22.28,12.65-29.93,39.54-17,60l34.16,54.22c12.8,20.32,41.07,26.38,63.1,13.61l88.38-51.26a589.24,589.24,0,0,0,122,109l-51,86.44c-12.42,21.07-5,46.89,16.43,57.6l56.8,28.33c21.24,10.59,48.3,2.16,60.48-18.77l50.54-86.81a599.73,599.73,0,0,0,157.38,32.63v96.77c0,23,19.11,40.59,42.62,39.18l62.11-3.71c23.21-1.39,42-21,42-43.79v-95.72a603.51,603.51,0,0,0,150.48-46.53l46.89,78.87c11.2,18.84,35.94,24.15,55.23,11.91l51-32.37c19.08-12.11,25.6-37.06,14.6-55.8L2466.82,1704a598.88,598.88,0,0,0,107.87-110.79l75.91,42c18.63,10.31,42.38,2.91,53.08-16.47l28.35-51.39c10.63-19.27,4.32-43.3-14.12-53.73l-73.41-41.53a574.13,574.13,0,0,0,40.81-148l82-1c21.13-.26,38.2-18.11,38.2-39.86v-57.85C2805.48,1203.55,2788.41,1186,2767.28,1186Zm-646.1,476.24c-236.15,8.76-433.77-174.51-433.77-409.64S1885,831.65,2121.18,837.4c228.12,5.55,407.44,188.95,407.44,409.81S2349.31,1653.75,2121.18,1662.22Z" transform="translate(-447.15 -328.59)"/><polygon class="c" points="1409.79 285.75 1352.95 283.79 1333.35 334.75 1409.79 285.75"/><polygon class="c" points="1973.42 309.27 2038.96 309.92 2038.96 358.27 1973.42 309.27"/><polygon class="c" points="2223.2 542.49 2288.54 545.13 2272.21 581.71 2223.2 542.49"/><polygon class="c" points="2325.78 858.08 2391.77 863.3 2370.21 895.32 2325.78 858.08"/><polygon class="c" points="2216.02 1310.84 2280.05 1319.99 2287.89 1267.72 2216.02 1310.84"/><polygon class="c" points="1971.01 1546.7 2028.51 1557.15 2033.08 1514.69 1971.01 1546.7"/><polygon class="c" points="1683.54 1648.62 1631.93 1639.47 1676.36 1573.49 1683.54 1648.62"/><polygon class="c" points="1403.91 1593.09 1343.81 1580.67 1390.19 1524.49 1403.91 1593.09"/><polygon class="c" points="1066.14 516.38 1128.86 518.34 1104.03 564.07 1066.14 516.38"/><polygon class="c" points="941.35 1008.35 998.84 1016.84 994.27 969.8 941.35 1008.35"/><polygon class="c" points="1064.83 1352.66 1121.02 1361.8 1125.59 1324.56 1064.83 1352.66"/><path class="d" d="M2831.76,1191.16l-80.47.14A572.91,572.91,0,0,0,2714,1039.21l68-39.45c18.59-10.78,25-35.1,14.23-54.37L2767.63,894c-10.78-19.39-34.73-26.51-53.52-15.85l-67.19,38.13A591.35,591.35,0,0,0,2536.05,799l38.65-66.37c11.09-19,4.51-44.11-14.73-56l-51.43-31.91c-19.44-12.06-44.39-6.36-55.69,12.8l-38.73,65.7a602,602,0,0,0-160.27-48.87V596.36c0-23-18.91-42.48-42.31-43.54L2148.92,550c-23.7-1.08-43,16.88-43,40.11v78.76a609,609,0,0,0-167.83,38.35L1896.32,636c-12.28-20.92-39.57-29-61-18.06l-57.27,29.37c-21.66,11.11-29.09,37.24-16.57,58.31l43.31,72.85a605,605,0,0,0-125.68,119.11l-78.34-44.32c-22.21-12.56-50.71-6.05-63.62,14.62L1502.73,923c-13,20.81-5.28,47.81,17.19,60.24l81.07,44.85a578.81,578.81,0,0,0-44.27,165.25l-97.24.17c-26.17,0-47.46,19.88-47.46,44.3v64.94c0,24.42,21.29,44,47.46,43.63l99.82-1.24A573,573,0,0,0,1608,1505.8l-88.11,50c-22.47,12.75-30.18,39.86-17.19,60.49l34.44,54.67c12.91,20.49,41.41,26.6,63.62,13.72l89.12-51.67a594.27,594.27,0,0,0,123,109.9l-51.38,87.14c-12.53,21.24-5.09,47.27,16.57,58.07l57.27,28.56c21.41,10.68,48.7,2.18,61-18.92l51-87.52A604.81,604.81,0,0,0,2106,1843.13v97.56c0,23.24,19.27,40.92,43,39.5l62.62-3.74c23.4-1.4,42.31-21.16,42.31-44.14v-96.5a608.27,608.27,0,0,0,151.73-46.91l47.28,79.51c11.3,19,36.24,24.35,55.69,12l51.43-32.64c19.24-12.21,25.81-37.36,14.73-56.25l-45.89-78.17a603.35,603.35,0,0,0,108.76-111.7l76.54,42.35c18.79,10.4,42.74,2.94,53.52-16.61l28.59-51.81c10.72-19.42,4.36-43.65-14.23-54.17l-74-41.87a578.55,578.55,0,0,0,41.15-149.21l82.63-1c21.3-.27,38.52-18.26,38.52-40.19V1230.8C2870.28,1208.88,2853.06,1191.13,2831.76,1191.16Zm-651.45,480.12c-238.11,8.83-437.36-175.93-437.36-413s199.26-424.36,437.36-418.57c230,5.59,410.82,190.49,410.82,413.15S2410.32,1662.74,2180.31,1671.28Z" transform="translate(-447.15 -328.59)"/><path class="c" d="M3029.14,2289.16l-42.93-8a311.08,311.08,0,0,0-4.68-84.87l40.24-14.23c11-3.89,16.82-16.22,13-27.58l-10.1-30.29c-3.81-11.42-15.87-17.62-27-13.81L2958.09,2124a320.63,320.63,0,0,0-47.39-73.67L2938,2018.8c7.82-9,6.82-23.08-2.24-31.37l-24.24-22.17c-9.16-8.38-23-7.84-31,1.25l-27.24,31.17a326.65,326.65,0,0,0-80.59-42.12l7.8-41.56c2.3-12.26-5.83-24.55-18.2-27.47l-33.12-7.79c-12.53-3-24.61,4.7-26.94,17.09l-7.89,42a330.53,330.53,0,0,0-93.36,3.65l-15.17-42.17c-4.46-12.39-18.2-19.45-30.72-15.74l-33.49,9.93A22.3,22.3,0,0,0,2506.9,1923l15.81,43.2a328.28,328.28,0,0,0-79,51l-37.35-31.49c-10.59-8.93-26.44-8.31-35.4,1.43l-23.89,26c-9,9.8-7.6,25,3.13,33.86l38.75,32a314.2,314.2,0,0,0-40.16,83.72L2297,2153c-14-2.6-27.3,5.85-29.75,18.88l-6.5,34.64c-2.45,13,7,25.58,20.94,28l53.37,9.33a311.08,311.08,0,0,0,9.9,90.58l-52,17.85c-13.26,4.55-20.09,18.24-15.22,30.54l12.9,32.61c4.83,12.22,19.42,18.34,32.56,13.69l52.71-18.64a322.55,322.55,0,0,0,54.58,70.94l-36.13,41.34c-8.81,10.08-7.45,24.71,3,32.64l27.69,21c10.35,7.84,25.76,6,34.42-4l35.94-41.58a328.48,328.48,0,0,0,81.34,33.44l-9.77,52c-2.33,12.4,6.18,23.76,19,25.38l33.78,4.27c12.62,1.6,24.68-7,27-19.31l9.66-51.48a330.19,330.19,0,0,0,85.63-9.83l17.25,47.15c4.12,11.27,16.89,16.62,28.5,12l30.7-12.26c11.48-4.58,17.51-17.35,13.49-28.53l-16.65-46.3a327.66,327.66,0,0,0,69.2-48.69l36.58,30.26c9,7.43,22.5,5.85,30.21-3.5l20.44-24.78c7.66-9.29,6.7-22.85-2.17-30.32l-35.29-29.75a313.83,313.83,0,0,0,36.89-75.47l44.18,7.73c11.39,2,22.37-5.88,24.57-17.58l5.84-31.11C3047.91,2302.46,3040.5,2291.27,3029.14,2289.16ZM2633.59,2480c-127.88-19.13-215.66-137.65-191.92-264.1s148.78-206.42,275.2-179.49c122.12,26,200,142.75,177.74,261.53S2757.12,2498.52,2633.59,2480Z" transform="translate(-447.15 -328.59)"/><polygon class="c" points="2150.13 1561.23 2119.76 1554.44 2104.07 1579.86 2150.13 1561.23"/><polygon class="c" points="2450.87 1630.78 2486.05 1637.75 2481.17 1663.75 2450.87 1630.78"/><polygon class="c" points="2561.65 1781.43 2596.52 1789.44 2584.05 1807.47 2561.65 1781.43"/><polygon class="c" points="2584.95 1961.51 2619.91 1970.98 2605.09 1986.02 2584.95 1961.51"/><polygon class="c" points="2480.21 2193.92 2513.72 2205.3 2523.22 2177.98 2480.21 2193.92"/><polygon class="c" points="2324.64 2296.02 2354.5 2307.45 2361.25 2285.07 2324.64 2296.02"/><polygon class="c" points="2159.75 2321.81 2132.91 2311.68 2163.47 2280.68 2159.75 2321.81"/><polygon class="c" points="2014.97 2263.71 1983.9 2250.97 2014.52 2225.44 2014.97 2263.71"/><polygon class="c" points="1942.02 1650.56 1975.56 1657.95 1957.59 1680.04 1942.02 1650.56"/><polygon class="c" points="1825.24 1902.54 1855.31 1912.91 1857.6 1887.15 1825.24 1902.54"/><polygon class="c" points="1856.89 2100.18 1886.18 2110.77 1892.4 2091.2 1856.89 2100.18"/><path class="d" d="M3063.29,2298.45l-43.29-8a313.72,313.72,0,0,0-4.72-85.56l40.57-14.35c11.09-3.92,17-16.36,13.14-27.8l-10.19-30.53c-3.84-11.52-16-17.76-27.18-13.93l-40,13.72a323.81,323.81,0,0,0-47.78-74.28l27.48-31.79c7.89-9.12,6.88-23.27-2.26-31.63l-24.44-22.35c-9.24-8.45-23.23-7.9-31.24,1.26l-27.46,31.42a329.47,329.47,0,0,0-81.26-42.46l7.87-41.9c2.32-12.36-5.88-24.75-18.36-27.69l-33.39-7.86c-12.64-3-24.81,4.74-27.16,17.23l-7.95,42.36a333.36,333.36,0,0,0-94.13,3.68l-15.29-42.51c-4.49-12.49-18.35-19.61-31-15.87l-33.76,10a22.47,22.47,0,0,0-14.8,29.68l15.94,43.55a330.78,330.78,0,0,0-79.62,51.37l-37.66-31.74c-10.68-9-26.66-8.37-35.69,1.44l-24.09,26.18c-9.09,9.88-7.67,25.18,3.16,34.13l39.07,32.31a316.87,316.87,0,0,0-40.49,84.4l-52.31-9.73c-14.08-2.62-27.53,5.9-30,19l-6.56,34.93c-2.47,13.13,7,25.79,21.12,28.25l53.81,9.41a313.67,313.67,0,0,0,10,91.32l-52.43,18c-13.37,4.59-20.26,18.39-15.35,30.79l13,32.88c4.87,12.32,19.59,18.48,32.83,13.8l53.14-18.79a325.1,325.1,0,0,0,55,71.52L2423.21,2534c-8.88,10.16-7.51,24.91,3.05,32.9l27.92,21.14c10.44,7.9,26,6.09,34.71-4l36.24-41.92a331.16,331.16,0,0,0,82,33.71l-9.85,52.47c-2.35,12.5,6.23,23.95,19.12,25.58l34.06,4.31c12.72,1.61,24.89-7.11,27.21-19.47l9.74-51.9a333.44,333.44,0,0,0,86.34-9.91l17.4,47.54c4.16,11.36,17,16.75,28.74,12.08l31-12.36c11.58-4.62,17.66-17.49,13.6-28.76l-16.79-46.67a330.08,330.08,0,0,0,69.77-49.09l36.89,30.5c9.06,7.49,22.69,5.89,30.46-3.53l20.61-25c7.73-9.36,6.75-23-2.19-30.57l-35.58-30a316.4,316.4,0,0,0,37.2-76.09l44.54,7.79c11.48,2,22.56-5.93,24.77-17.72l5.89-31.37C3082.22,2311.87,3074.75,2300.59,3063.29,2298.45Zm-398.82,192.43C2535.53,2471.59,2447,2352.11,2471,2224.62s150-208.1,277.47-180.95c123.14,26.23,201.7,143.92,179.22,263.67S2789,2509.52,2664.47,2490.88Z" transform="translate(-447.15 -328.59)"/><path class="e" d="M1193.28,2568.65c-23.25,38.54-63.76,90.86-107.62,151.54l732,106c-81.88-222.92-197.32-457-24.91-844.1,80.91-181.65,295.94-501,207.43-714-100.83-242.64-300.32-137.86-350.94-325.72-79.11-293.61-329-497.86-597.53-351.94-265,144-256.1,670.21,93.07,1245.84C1348.51,2277.63,1314.68,2367.41,1193.28,2568.65Z" transform="translate(-447.15 -328.59)"/><g class="f"><path class="g" d="M1470.25,2732.57c5.29-96.14,5.4-187.08,5.52-283.36l0-32.1c-2.8-46.37-4.3-92.16-5.75-136.45-3.28-100-6.38-194.45-23.3-294.73-.33-5.86-.36-11.55-.39-17.57-.11-21.51-.23-43.76-12.72-65l-.29-.88c-50.31-530.35-210.86-1059.21-477.2-1571.88l3.81-2c266.51,513,427.21,1042.24,477.62,1573,12.83,22.15,13,45.84,13.06,66.77,0,6,.06,11.61.36,17.12,16.94,100.32,20,194.91,23.33,295.06,1.45,44.26,3,90,5.75,136.46l0,32.23c-.12,96.34-.23,187.34-5.52,283.59Z" transform="translate(-447.15 -328.59)"/><path class="g" d="M1465.32,2262.28c-4.7-250.82,127.59-548.75,239.39-754.52,121.08-222.84,244.88-388.6,246.12-390.25l3.43,2.57c-1.23,1.65-124.88,167.2-245.81,389.77-111.55,205.3-243.53,502.48-238.84,752.34Z" transform="translate(-447.15 -328.59)"/><path class="g" d="M1296.86,1172.23c-19.82-265.87,21-549.49,34.35-642.69,2.56-17.83,4.25-29.6,4.18-31.89l4.29-.14c.09,2.56-1.23,11.86-4.22,32.65-13.38,93.08-54.1,376.35-34.31,641.76Z" transform="translate(-447.15 -328.59)"/><path class="g" d="M1392.5,1597.38c-89.72-229.06-558.78-432.15-563.5-434.17l1.69-3.94c4.74,2,475.44,205.84,565.81,436.55Z" transform="translate(-447.15 -328.59)"/></g><path class="h" d="M1198.12,1759.55c4,339.82,167.89,227.84,319,261.38,174.43,252.37,190.86,486.52-69.57,688.73l-290.18-43.43c-107.67-5-234-37.9-226.88-181.27,8.06-162.15,46.41-265.13-136.61-344.76S532.26,1915.27,606.38,1750c78-173.92-104.94-408.37,28.75-524.9C868.07,1022.05,1194,1405.7,1198.12,1759.55Z" transform="translate(-447.15 -328.59)"/><g class="i"><path class="g" d="M1270.16,2367.68a2224,2224,0,0,1-312-437.77c-86.61-159.3-152.62-327.33-196.2-499.41a2031.79,2031.79,0,0,1-52.44-298.81l4.37-.43a2027.17,2027.17,0,0,0,52.33,298.16C809.72,1601.15,875.6,1768.83,962,1927.81a2219.26,2219.26,0,0,0,311.37,436.9Z" transform="translate(-447.15 -328.59)"/><path class="g" d="M957.83,2554.32l-2-3.91c53.9-27.46,117.47-48.87,189-63.64A735.78,735.78,0,0,1,1245.38,2473l.29,4.38a730.14,730.14,0,0,0-100,13.73C1074.58,2505.76,1011.38,2527,957.83,2554.32Z" transform="translate(-447.15 -328.59)"/><path class="g" d="M1014.66,2026.87c-149.84-144.95-468.82-131.7-472-131.53l-.21-4.39c3.23-.14,324.06-13.51,475.27,132.76Z" transform="translate(-447.15 -328.59)"/><path class="g" d="M829.89,1648.57C785,1417.33,958.35,1150.1,960.1,1147.43l3.67,2.41c-1.75,2.66-174.08,268.42-129.57,497.9Z" transform="translate(-447.15 -328.59)"/></g><path class="j" d="M3215.86,2772.76,622.05,2750v67.46c0,18.31,11.31,33.88,26.64,36.65l733.45,132.83a100.07,100.07,0,0,0,26.31,1.25L3187.67,2836.7c15.88-1.35,28.19-17,28.19-35.78Z" transform="translate(-447.15 -328.59)"/><path class="k" d="M2274.57,2663.41l-1625.7,123.4c-29.09,2.21-52.74-21.26-52.74-52.41V1486.08c0-31.16,23.65-56.42,52.74-56.42h1625.7c24,0,43.34,22.83,43.34,51V2609.12C2317.92,2637.29,2298.54,2661.59,2274.57,2663.41Z" transform="translate(-447.15 -328.59)"/><path class="l" d="M2300.5,2663.41,674.8,2786.81c-29.09,2.21-52.74-21.26-52.74-52.41V1486.08c0-31.16,23.65-56.42,52.74-56.42H2300.5c24,0,43.34,22.83,43.34,51V2609.12C2343.84,2637.29,2324.46,2661.59,2300.5,2663.41Z" transform="translate(-447.15 -328.59)"/><path class="m" d="M2249.85,2583.85,735.68,2691c-23.67,1.68-42.91-17.58-42.91-43V1555.12c0-25.44,19.24-46.14,42.91-46.25l1514.17-6.73c19.77-.09,35.76,18.62,35.76,41.79v995.44C2285.61,2562.54,2269.62,2582.45,2249.85,2583.85Z" transform="translate(-447.15 -328.59)"/><path class="n" d="M1545.06,1463.8c0,11.6-8.37,21-18.7,21.06s-18.74-9.36-18.74-21,8.4-21.06,18.74-21.06S1545.06,1452.2,1545.06,1463.8Z" transform="translate(-447.15 -328.59)"/><path class="o" d="M1908.81,2321c-125.33-72.43-223.87,19.35-319-71.21-57.66-54.9-29.35-95.84-100.3-177.88-78.58-90.87-129.74-60.32-208.71-142.1-99.85-103.41-49.91-183.86-135.92-258.1-104.34-90.07-216.87-6.7-316.2-93.08-42.84-37.25-66.35-91.42-78.62-149H652.9c-17,0-30.86,14.83-30.86,33.12v1294c0,18.29,13.83,32.06,30.86,30.76L2309.76,2661.2c8.13-.62,15.34-5.72,20-13.11-121.29-4.75-195.8-48.42-243.43-93.57C1993.13,2466.21,2009.29,2379.11,1908.81,2321Z" transform="translate(-447.15 -328.59)"/><path class="p" d="M2365.29,2657.81,622.05,2787.71l760.09,137.66a100.07,100.07,0,0,0,26.31,1.25l1807.41-153.85L2393,2658.71A130.69,130.69,0,0,0,2365.29,2657.81Z" transform="translate(-447.15 -328.59)"/><polygon class="q" points="429.27 2462.38 1880.57 2352.63 2329.73 2414.39 890.93 2531.71 429.27 2462.38"/><g class="r"><polygon class="n" points="554.54 1266.1 387.81 1266.68 387.81 1212.72 554.54 1212.72 554.54 1266.1"/><polygon class="n" points="1428.16 1263.05 660.45 1265.73 660.45 1212.72 1428.16 1212.72 1428.16 1263.05"/><polygon class="n" points="821.39 1354.75 660.45 1356.27 660.45 1303.26 821.39 1302.3 821.39 1354.75"/><polygon class="n" points="1665.62 1346.77 923.64 1353.78 923.64 1301.69 1665.62 1297.27 1665.62 1346.77"/><polygon class="n" points="821.39 1444.33 660.45 1446.81 660.45 1393.81 821.39 1391.89 821.39 1444.33"/><polygon class="n" points="1665.62 1431.32 923.64 1442.76 923.64 1390.67 1665.62 1381.82 1665.62 1431.32"/><polygon class="n" points="554.54 1539.62 387.81 1543.19 387.81 1489.23 554.54 1486.25 554.54 1539.62"/><polygon class="n" points="1428.16 1520.94 660.45 1537.36 660.45 1484.35 1428.16 1470.62 1428.16 1520.94"/><polygon class="n" points="821.39 1623.5 660.45 1627.9 660.45 1574.89 821.39 1571.06 821.39 1623.5"/><polygon class="n" points="1665.62 1600.41 923.64 1620.7 923.64 1568.62 1665.62 1550.92 1665.62 1600.41"/><polygon class="n" points="821.39 1713.08 660.45 1718.44 660.45 1665.44 821.39 1660.64 821.39 1713.08"/><polygon class="n" points="1665.62 1684.96 923.64 1709.68 923.64 1657.59 1665.62 1635.46 1665.62 1684.96"/><polygon class="n" points="821.39 1802.67 660.45 1808.99 660.45 1755.98 821.39 1750.22 821.39 1802.67"/><polygon class="n" points="1665.62 1769.51 923.64 1798.65 923.64 1746.56 1665.62 1720.01 1665.62 1769.51"/><polygon class="n" points="1081.49 1880.48 926.11 1887.51 926.11 1835.43 1081.49 1828.95 1081.49 1880.48"/><polygon class="n" points="1778.92 1848.93 1180.24 1876.02 1180.24 1824.83 1778.92 1799.83 1778.92 1848.93"/><polygon class="n" points="554.54 1995.5 387.81 2004.03 387.81 1950.08 554.54 1942.12 554.54 1995.5"/><polygon class="n" points="1428.16 1950.77 660.45 1990.07 660.45 1937.07 1428.16 1900.44 1428.16 1950.77"/><polygon class="n" points="821.39 2071.42 660.45 2080.62 660.45 2027.61 821.39 2018.97 821.39 2071.42"/><polygon class="n" points="1665.62 2023.16 923.64 2065.57 923.64 2013.48 1665.62 1973.66 1665.62 2023.16"/><polygon class="n" points="821.39 2161 660.45 2171.16 660.45 2118.15 821.39 2108.56 821.39 2161"/><polygon class="n" points="1665.62 2107.71 923.64 2154.55 923.64 2102.46 1665.62 2058.21 1665.62 2107.71"/><polygon class="n" points="554.54 2269.02 387.81 2280.54 387.81 2226.58 554.54 2215.65 554.54 2269.02"/><polygon class="n" points="1428.16 2208.66 660.45 2261.7 660.45 2208.7 1428.16 2158.33 1428.16 2208.66"/></g><path class="s" d="M2915.91,2023.24c-94.69,186.89-223.46,206.74-261.43,208.63v.15s1.11.09-1.73,0-1.73,0-1.73,0v-.15c-34.52-1.55-124.14-15.38-209.12-125.35a519.87,519.87,0,0,1-52.22-83.27c-110-217.09-30-328.9-30-328.9l291.36-.7v0l1.73,0,1.73,0v0l124.14.3,167.71.4S3025.92,1806.15,2915.91,2023.24Z" transform="translate(-447.15 -328.59)"/><ellipse class="t" cx="2206.06" cy="1370.28" rx="295.82" ry="37.47"/><path class="u" d="M2915.91,2023.24c-94.69,186.89-223.46,206.74-261.43,208.63v.15s1.11.09-1.73,0-1.73,0-1.73,0v-.15c-34.52-1.55-124.14-15.38-209.12-125.35.49-101.27,235.45-170.08,308.86-217,92.87-59.37,18.15-190.6,18.15-190.6,3.59-1.71,7.09-3.35,10.6-4.93l167.26.4S3025.92,1806.15,2915.91,2023.24Z" transform="translate(-447.15 -328.59)"/><ellipse class="v" cx="1755.98" cy="843.74" rx="154.26" ry="197.38"/><path class="w" d="M3177.34,1216.8c0,245.56-242.94,444.6-542.61,444.6a656.25,656.25,0,0,1-133.39-13.55c-235.18-48.69-409.22-223.21-409.22-431,0-245.53,242.94-444.6,542.61-444.6,84.19,0,163.9,15.71,235,43.75C3051.74,887.72,3177.34,1040.27,3177.34,1216.8Z" transform="translate(-447.15 -328.59)"/><path class="b" d="M2272.38,1419.75l418.37,36.51c92.49,8.07,172.27-64.28,175.5-162.62l3.45-104.93c1.48-45.14-33.08-82.79-76.61-83.91l-596.41-15.38c-34.64-.89-62.38,30.59-62.38,70.18v92.11C2134.31,1338.13,2195.24,1413,2272.38,1419.75Z" transform="translate(-447.15 -328.59)"/><path class="x" d="M2262.34,1359.74l447.66,33c66.11,4.87,122.6-47.39,124.79-117.22l1.46-46.34c1.41-44.78-32.77-82.29-75.77-83.61l-533.68-16.31c-35-1.07-63.07,30.38-63.12,70.1l0,41.13C2163.55,1302.45,2207.29,1355.69,2262.34,1359.74Z" transform="translate(-447.15 -328.59)"/><path class="d" d="M2524.79,1319.64c-4.21-6.93-6.76-14.57-6.62-22.66.45-26.21,26.72-46.19,59-44.56,32.65,1.65,58.91,24.73,58.3,51.48a39.57,39.57,0,0,1-7.79,22.22Z" transform="translate(-447.15 -328.59)"/><path class="d" d="M2249.33,1302.29a42,42,0,0,1-6.24-21.54c.12-24.93,23.62-44,52.77-42.53,29.47,1.49,53.4,23.36,53.15,48.78a38.57,38.57,0,0,1-6.78,21.14Z" transform="translate(-447.15 -328.59)"/><path class="y" d="M3177.34,1216.8c0,245.56-242.94,444.6-542.61,444.6a656.25,656.25,0,0,1-133.39-13.55c-42.2-133.21,196.3-279.3,333.46-372.38,168-114,34.95-459.52,34.95-459.52C3051.74,887.72,3177.34,1040.27,3177.34,1216.8Z" transform="translate(-447.15 -328.59)"/><ellipse class="z" cx="2656.14" cy="921.15" rx="154.26" ry="197.38"/><path class="aa" d="M1606.39,2393.23c36.57-20.27,25.87-135.3-23.75-216.14-70.45-114.77-224.86-169.57-256.51-135.38-32.4,35,60.86,166.3,76,187.64C1457.08,2306.73,1563.13,2417.2,1606.39,2393.23Z" transform="translate(-447.15 -328.59)"/><path class="ab" d="M1937.18,3126.4c-6.83,7.54-8.39,21.43-2.45,28.27s14.62,1.68,39.51,2.42c26.67.8,33.63,7.09,51.75,2.1,7.32-2,20.25-6.93,20-12.16-.17-3.68-6.76-5.57-28.74-12.94-31.21-10.45-31.07-11-37.7-12.12C1962.91,3119.21,1946.2,3116.45,1937.18,3126.4Z" transform="translate(-447.15 -328.59)"/><path class="ac" d="M1954.26,3082.91l13.37,44.49c-1,2.39-14.61,10.35-26.28,5.3l-19.86-43.18Z" transform="translate(-447.15 -328.59)"/><path class="ad" d="M1768.06,3165.5c-6.83,7.54-8.39,21.43-2.45,28.27s14.61,1.68,39.51,2.42c26.67.8,33.63,7.09,51.75,2.1,7.32-2,20.25-6.93,20-12.16-.17-3.67-6.76-5.57-28.74-12.94-31.21-10.45-31.07-11-37.7-12.12C1793.79,3158.31,1777.08,3155.54,1768.06,3165.5Z" transform="translate(-447.15 -328.59)"/><path class="ae" d="M1785.14,3122l13.37,44.49c-1,2.39-14.61,10.35-26.28,5.3l-19.86-43.18Z" transform="translate(-447.15 -328.59)"/><path class="af" d="M1032.79,2049.15a580.18,580.18,0,0,1,187.15-31.25c89.93,0,162.14,0,212,42.52,121,103.15-14.43,350.22,55,533.19,7.6,20,29.72,83.57,10.48,152.1-3.55,12.63-10.85,23.58-23.33,42.1-73.3,108.76-279.22,117.67-373.54,23.38-49.85-49.84-94.67-40.71-95.87-97.57C999.91,2489.14,1034.74,2265.25,1032.79,2049.15Z" transform="translate(-447.15 -328.59)"/><path class="ag" d="M1085,2319.31c-17.14-46.93.62-100.66-37.6-124.11-14-8.59-31.41-12.24-50.37-11.82,2.27,165,5.52,329.79,9.53,502,1.33,56.86,8.44,59.68,63.56,109.51,63.87,57.74,173.93,76.59,268.34,57.7-123.64-76-211.85-154.8-199.22-222.31,14.71-78.62,158.69-101.84,152.9-157.74C1286,2413.27,1122.47,2421.92,1085,2319.31Z" transform="translate(-447.15 -328.59)"/><path class="ah" d="M1072.11,2054.22c-41.57-28.06-141.71,42.71-197.23,105-25.8,29-115.64,129.75-93.32,265.15,3.64,22.07,20.38,125.23,108.7,175.77,79.07,45.25,185.85,33.61,271.39-30.47l35.07-31.12q17.25-18.65,34.51-37.3a276.93,276.93,0,0,0-91.94-50.66c-65.74-21.21-109,10.26-124.69-10.46-19.36-25.51,39.57-73,55-181.16C1073.82,2229.8,1118.54,2085.57,1072.11,2054.22Z" transform="translate(-447.15 -328.59)"/><path class="ai" d="M1140.3,2760.25c-27.47,89.39,23.39,53.05,127,2,109.08-53.74,347.54-130.92,450.28-29.83,76.52,75.29,22.39,194.34,140.78,325.38a384.45,384.45,0,0,0,53,48.56l64-26.49c8.37-48.89,34.74-237.34-83.87-406.13-28.68-40.81-83.23-119.15-176.58-152.3C1462.49,2431.86,1165.63,2677.81,1140.3,2760.25Z" transform="translate(-447.15 -328.59)"/><path class="aj" d="M1039.59,2676.85c-17.78,51.34-1.78,110.35,27.28,147,64.5,81.38,209.3,72.82,299.74,42.77,110.05-36.57,134.63-103.16,177.9-86.79,67.25,25.43,19.4,191,140.78,325.38a384.45,384.45,0,0,0,53,48.56l64-26.49c16.11-113.84,4.34-205.05-7.93-263.31-14.07-66.81-26.68-126.66-73.75-184.38-58.49-71.72-134.91-96.9-178.76-110.73C1356.31,2510.36,1085.79,2543.45,1039.59,2676.85Z" transform="translate(-447.15 -328.59)"/><polygon class="ak" points="1193.99 2209.45 693.15 2201.97 826.33 2266.25 1195.27 2242.1 1193.99 2209.45"/><path class="al" d="M1122.62,2543.87h0a22.29,22.29,0,0,0,14.67,21l160,62.74.73-43.5-157.76-53.5A13.85,13.85,0,0,0,1122.62,2543.87Z" transform="translate(-447.15 -328.59)"/><path class="am" d="M1194.13,2523.77c-3.07-.69,15-36.65,29.15-32.5s83.46,44.31,89.76,60.85l6.3,16.54s-30.23,2.36-49-3.94S1219.12,2529.34,1194.13,2523.77Z" transform="translate(-447.15 -328.59)"/><path class="an" d="M1311.35,2278.88l-35.3,321.44c-1.22,11.09,14.31,27.62,25.45,27.09l517.9-31.79a18.16,18.16,0,0,0,17-15.06l65-310.45c1.94-11.3-18.37-23-29.83-22.65l-542.73,15.26A18.14,18.14,0,0,0,1311.35,2278.88Z" transform="translate(-447.15 -328.59)"/><path class="ao" d="M1323.18,2288.25l-35.31,321.44a18.16,18.16,0,0,0,18.91,20.12L1831.23,2605a18.17,18.17,0,0,0,17-15.06L1901.85,2278a18.16,18.16,0,0,0-18.41-21.23l-542.73,15.26A18.18,18.18,0,0,0,1323.18,2288.25Z" transform="translate(-447.15 -328.59)"/><path class="ap" d="M1631.14,2529.67c-45.79-19.41-29.63-56.42-83.71-102.54-71.34-60.84-144-34.46-169.51-81.62-7.93-14.69-11.71-37.54,2.09-74.53l-39.3,1.1a18.16,18.16,0,0,0-17.54,16.17l-35.31,321.44a18.17,18.17,0,0,0,18.91,20.12L1831.22,2605a18.17,18.17,0,0,0,17-15.06l7.39-43a198,198,0,0,0-57.11-21.41C1721.61,2509.88,1683.86,2552,1631.14,2529.67Z" transform="translate(-447.15 -328.59)"/><path class="aq" d="M1228.34,1895a389.34,389.34,0,0,1-7,77.88c-4,20.75-6.93,26.1-10.64,30.45-5.58,6.55-14,12-61.81,23.88-26,6.44-29.34,6.27-29.92,8.85-2.8,12.59,68.09,55.48,141.32,45.14,44.82-6.33,85.6-31.9,83.1-45.33s-47.29-6.26-60.64-30.71c-9.28-17,1.12-41.15,13.42-61.15C1284.31,1921.73,1240.25,1917.36,1228.34,1895Z" transform="translate(-447.15 -328.59)"/><path class="ar" d="M1322.39,1937.43c13.78-10.93,20.59-34.51,12.7-52.58-6.79-15.56-22.28-21.56-31.55-25.15-26.88-10.42-64.85-8-83.66,14.38-11.14,13.24-3.73,48.7-2.76,55,1.1,7.1,5.54,10.6,8.92,16.63,4.68,8.37,12,21.63,23.75,43.71a117.86,117.86,0,0,1,11.19-17.16c1.89-2.4,9.42-11.76,18.91-18.67C1298.93,1939.71,1309.33,1947.79,1322.39,1937.43Z" transform="translate(-447.15 -328.59)"/><path class="as" d="M1230.28,1968.32s10.43,34.63,47.32,41.72c33,6.34,56.74-65.24,40-86.1-5.58-7-18.88-12.71-31-12.48-7.14.13-10.12,2.31-21.79,2.3-10.77,0-13.33-1.87-17-.1-4.64,2.21-9.48,9.34-8.66,32.29-4.56-7.89-11.37-12.23-17.29-11.11a11.41,11.41,0,0,0-5.42,3.09C1209.75,1945.05,1214.58,1957.65,1230.28,1968.32Z" transform="translate(-447.15 -328.59)"/><path class="at" d="M1247.49,1908.92c1.26,1.57-5,6.17-7.56,14.35-4.88,15.87,6.35,39.37,22.5,45.32,9.55,3.52,13.78-1.69,30.43.82a76.62,76.62,0,0,1,23.28,7.52c.51,18.93-8.86,35.24-22.74,40.32-15,5.47-29.75-4.07-35.94-8-4.14-2.67-17.41-11.18-21.53-26.46-4.29-15.92,5.64-22.25-1-34-3.34-5.92-8.81-9.53-12.27-20.21a46.34,46.34,0,0,1-1.69-7C1231.69,1914.82,1245.67,1906.64,1247.49,1908.92Z" transform="translate(-447.15 -328.59)"/><path class="au" d="M1302.66,1980.38s-8,1.84-19.91-2c-.58-.19-1.28-.18-1.43.1-.58,1.08,5.85,8.26,13.54,8.11,5.46-.11,10.67-3.89,10.31-5.29C1305,1980.71,1303.84,1980.48,1302.66,1980.38Z" transform="translate(-447.15 -328.59)"/></svg>
