<svg version="1.1" xmlns="http://www.w3.org/2000/svg" xmlns:xlink="http://www.w3.org/1999/xlink" x="0px" y="0px"
	 viewBox="0 0 3710 3710" style="enable-background:new 0 0 3710 3710;" xml:space="preserve"><title>Sri Lankan IT Solution Provider| US LAYER</title>
<style type="text/css">
	.st0{fill:#F4F7FA;}
	.st1{fill:#97A6B7;}
	.st2{fill:#D8DEE8;}
	.st3{clip-path:url(#SVGID_3_);}
	.st4{fill:#FCFDFE;}
	.st5{clip-path:url(#SVGID_6_);}
	.st6{fill:url(#SVGID_7_);}
	.st7{fill:url(#SVGID_8_);}
	.st8{fill:url(#SVGID_9_);}
	.st9{fill:url(#SVGID_10_);}
	.st10{fill:#FFFFFF;}
	.st11{opacity:0.48;fill:#FFFFFF;}
	.st12{fill:url(#SVGID_11_);}
	.st13{opacity:0.3;fill:url(#SVGID_12_);}
	.st14{opacity:0.75;}
	.st15{fill:url(#SVGID_13_);}
	.st16{fill:url(#SVGID_14_);}
	.st17{opacity:0.3;fill:url(#SVGID_15_);}
	.st18{fill:url(#SVGID_16_);}
	.st19{fill:url(#SVGID_17_);}
	.st20{fill:url(#SVGID_18_);}
	.st21{opacity:0.3;fill:url(#SVGID_19_);}
	.st22{fill:url(#SVGID_20_);}
	.st23{fill:url(#SVGID_21_);}
	.st24{fill:url(#SVGID_22_);}
	.st25{fill:url(#SVGID_23_);}
	.st26{fill:url(#SVGID_24_);}
	.st27{fill:url(#SVGID_25_);}
	.st28{fill:url(#SVGID_26_);}
	.st29{opacity:0.4;fill:url(#SVGID_27_);}
	.st30{fill:url(#SVGID_28_);}
	.st31{fill:url(#SVGID_29_);}
	.st32{fill:url(#SVGID_30_);}
	.st33{fill:url(#SVGID_31_);}
	.st34{fill:url(#SVGID_32_);}
	.st35{fill:url(#SVGID_33_);}
	.st36{fill:url(#SVGID_34_);}
	.st37{fill:url(#SVGID_35_);}
	.st38{opacity:0.3;fill:url(#SVGID_36_);}
	.st39{fill:url(#SVGID_37_);}
	.st40{fill:url(#SVGID_38_);}
	.st41{fill:url(#SVGID_39_);}
	.st42{fill:url(#SVGID_40_);}
	.st43{fill:url(#SVGID_41_);}
</style>
<g id="Background">
</g>
<g id="Illustration">
	<g>
		<path class="st0" d="M3221.44,1650.97c-76.32-499.54-389.22-1113.26-1007.4-1177.49c0,0-469.35-57.09-932.03,29.44
			c-274.6,51.35-515.38,204.22-667.74,423.92c-152.36,219.71-203.25,487.61-141.49,743.02c40.12,165.89,67.22,337.58,59.78,508.05
			c-12.95,296.67-5.5,573.6,282.42,750.53c257.08,157.98,580.61,297.31,889.27,321.71c209.76,16.58,444.99-10.25,647.16-64.86
			C3381.71,2906.95,3297.76,2150.51,3221.44,1650.97z"/>
		<g>
			<g>
				<g>
					<g>
						<path class="st1" d="M2767.28,1185.98l-79.81,0.14c-5.5-52.72-18.17-103.32-37.03-150.86l67.48-39.13
							c18.44-10.69,24.75-34.82,14.12-53.93l-28.35-50.99c-10.69-19.23-34.44-26.3-53.08-15.72l-66.64,37.82
							c-31.01-43.46-68.03-82.65-109.95-116.35l38.33-65.84c11-18.89,4.47-43.75-14.61-55.59l-51.01-31.65
							c-19.28-11.96-44.03-6.31-55.23,12.69l-38.42,65.17c-49.36-22.99-102.7-39.58-158.96-48.47v-77.28
							c0-22.8-18.75-42.13-41.96-43.19l-62.11-2.83c-23.5-1.07-42.62,16.74-42.62,39.79v78.13c-57.99,4.83-113.9,17.87-166.45,38.04
							l-41.46-70.63c-12.18-20.76-39.24-28.8-60.48-17.91l-56.8,29.13c-21.48,11.02-28.85,36.94-16.43,57.83l42.96,72.26
							c-47.02,33.24-89.05,73.03-124.65,118.15l-77.7-43.96c-22.03-12.46-50.3-6-63.1,14.5l-34.16,54.71
							c-12.89,20.64-5.24,47.43,17.05,59.76l80.4,44.49c-22.29,51.34-37.35,106.38-43.9,163.92l-96.44,0.17
							c-25.96,0.04-47.07,19.72-47.07,43.94v64.42c0,24.22,21.11,43.6,47.07,43.27l99-1.23c8.36,56.2,24.87,109.7,48.33,159.37
							l-87.38,49.59c-22.28,12.65-29.93,39.54-17.05,60l34.16,54.22c12.8,20.32,41.07,26.38,63.1,13.61l88.38-51.26
							c35.31,41.77,76.39,78.47,121.96,109.01l-50.96,86.44c-12.42,21.07-5.05,46.89,16.43,57.6l56.8,28.33
							c21.24,10.59,48.3,2.16,60.48-18.77l50.54-86.81c49.9,17.6,102.71,28.77,157.38,32.63v96.77c0,23.05,19.11,40.59,42.62,39.18
							l62.11-3.71c23.21-1.39,41.96-20.99,41.96-43.79v-95.72c53.06-9.07,103.51-24.94,150.48-46.53l46.89,78.87
							c11.2,18.84,35.94,24.15,55.23,11.91l51.01-32.37c19.08-12.11,25.6-37.06,14.6-55.8l-45.52-77.54
							c40.74-32.24,77.01-69.54,107.87-110.79l75.91,42.01c18.63,10.31,42.38,2.91,53.08-16.47l28.35-51.39
							c10.63-19.27,4.32-43.3-14.12-53.73l-73.41-41.53c19.88-46.64,33.79-96.29,40.81-148l81.95-1.02
							c21.13-0.26,38.2-18.11,38.2-39.86v-57.85C2805.48,1203.55,2788.41,1185.95,2767.28,1185.98z M2121.18,1662.22
							c-236.15,8.76-433.77-174.51-433.77-409.64c0-235.13,197.62-420.93,433.77-415.18c228.12,5.55,407.44,188.95,407.44,409.81
							C2528.62,1468.06,2349.31,1653.75,2121.18,1662.22z"/>
						<polygon class="st1" points="1856.94,614.34 1800.1,612.38 1780.5,663.34 						"/>
						<polygon class="st1" points="2420.57,637.86 2486.11,638.51 2486.11,686.86 						"/>
						<polygon class="st1" points="2670.35,871.08 2735.69,873.72 2719.36,910.3 						"/>
						<polygon class="st1" points="2772.93,1186.67 2838.92,1191.89 2817.36,1223.91 						"/>
						<polygon class="st1" points="2663.17,1639.43 2727.2,1648.58 2735.04,1596.31 						"/>
						<polygon class="st1" points="2418.16,1875.29 2475.66,1885.74 2480.23,1843.28 						"/>
						<polygon class="st1" points="2130.69,1977.21 2079.08,1968.06 2123.51,1902.08 						"/>
						<polygon class="st1" points="1851.06,1921.68 1790.96,1909.26 1837.34,1853.08 						"/>
						<polygon class="st1" points="1513.29,844.97 1576.01,846.93 1551.18,892.66 						"/>
						<polygon class="st1" points="1388.5,1336.94 1445.99,1345.43 1441.42,1298.39 						"/>
						<polygon class="st1" points="1511.98,1681.25 1568.17,1690.39 1572.74,1653.15 						"/>
					</g>
					<path class="st2" d="M2831.76,1191.16l-80.47,0.14c-5.54-53.15-18.32-104.16-37.34-152.09l68.04-39.45
						c18.59-10.78,24.95-35.1,14.23-54.37l-28.59-51.41c-10.78-19.39-34.73-26.51-53.52-15.85l-67.19,38.13
						c-31.27-43.81-68.59-83.32-110.87-117.3l38.65-66.37c11.09-19.04,4.51-44.11-14.73-56.04l-51.43-31.91
						c-19.44-12.06-44.39-6.36-55.69,12.8l-38.73,65.7c-49.77-23.18-103.55-39.9-160.27-48.87v-77.91
						c0-22.98-18.91-42.48-42.31-43.54l-62.62-2.86c-23.7-1.08-42.97,16.88-42.97,40.11v78.76
						c-58.47,4.87-114.84,18.01-167.83,38.35l-41.8-71.21c-12.28-20.92-39.57-29.04-60.98-18.06l-57.27,29.37
						c-21.66,11.11-29.09,37.24-16.57,58.31l43.31,72.85c-47.41,33.51-89.78,73.63-125.68,119.11l-78.34-44.32
						c-22.21-12.56-50.71-6.05-63.62,14.62l-34.44,55.15c-12.99,20.81-5.28,47.81,17.19,60.24l81.07,44.85
						c-22.48,51.76-37.66,107.24-44.27,165.25l-97.24,0.17c-26.17,0.05-47.46,19.88-47.46,44.3v64.94
						c0,24.42,21.29,43.95,47.46,43.63l99.82-1.24c8.43,56.65,25.07,110.59,48.73,160.66l-88.11,50
						c-22.47,12.75-30.18,39.86-17.19,60.49l34.44,54.67c12.91,20.49,41.41,26.6,63.62,13.72l89.12-51.67
						c35.61,42.11,77.02,79.11,122.97,109.9l-51.38,87.14c-12.53,21.24-5.09,47.27,16.57,58.07l57.27,28.56
						c21.41,10.68,48.7,2.18,60.98-18.92l50.95-87.52c50.31,17.74,103.56,29,158.68,32.89v97.56c0,23.24,19.27,40.92,42.97,39.5
						l62.62-3.74c23.4-1.4,42.31-21.16,42.31-44.14v-96.5c53.5-9.14,104.37-25.14,151.73-46.91l47.28,79.51
						c11.3,19,36.24,24.35,55.69,12.01l51.43-32.64c19.24-12.21,25.81-37.36,14.73-56.25l-45.89-78.17
						c41.08-32.5,77.65-70.11,108.76-111.7l76.54,42.35c18.79,10.4,42.74,2.94,53.52-16.61l28.59-51.81
						c10.72-19.42,4.36-43.65-14.23-54.17l-74.02-41.87c20.05-47.02,34.07-97.07,41.15-149.21l82.63-1.03
						c21.3-0.27,38.52-18.26,38.52-40.19v-58.32C2870.28,1208.88,2853.06,1191.13,2831.76,1191.16z M2180.31,1671.28
						c-238.11,8.83-437.36-175.93-437.36-412.98c0-237.04,199.26-424.36,437.36-418.57c230.01,5.59,410.82,190.49,410.82,413.15
						C2591.12,1475.54,2410.32,1662.74,2180.31,1671.28z"/>
				</g>
			</g>
			<g>
				<g>
					<g>
						<path class="st1" d="M3029.14,2289.16l-42.93-7.98c2.37-28.91,0.66-57.4-4.68-84.87l40.24-14.23
							c11-3.89,16.82-16.22,13.04-27.58l-10.1-30.29c-3.81-11.42-15.87-17.62-26.96-13.81l-39.66,13.61
							c-12.29-26.5-28.24-51.32-47.39-73.67l27.26-31.54c7.82-9.05,6.82-23.08-2.24-31.37l-24.24-22.17
							c-9.16-8.38-23.04-7.84-30.98,1.25l-27.24,31.17c-24.22-17.35-51.23-31.65-80.59-42.12l7.8-41.56
							c2.3-12.26-5.83-24.55-18.2-27.47l-33.12-7.79c-12.53-2.95-24.61,4.7-26.94,17.09l-7.89,42.02
							c-31.68-3.26-63.06-1.89-93.36,3.65l-15.17-42.17c-4.46-12.39-18.2-19.45-30.72-15.74l-33.49,9.93
							c-12.66,3.76-19.25,16.95-14.68,29.44l15.81,43.2c-28.64,13.13-55.26,30.29-78.96,50.96l-37.35-31.49
							c-10.59-8.93-26.44-8.31-35.4,1.43l-23.89,25.97c-9.01,9.8-7.6,24.98,3.13,33.86l38.75,32.04
							c-17.17,25.36-30.83,53.44-40.16,83.72l-51.88-9.65c-13.96-2.6-27.3,5.85-29.75,18.88l-6.5,34.64
							c-2.45,13.03,6.95,25.58,20.94,28.02l53.37,9.33c-1.18,31.07,2.3,61.5,9.9,90.58l-52,17.85
							c-13.26,4.55-20.09,18.24-15.22,30.54l12.9,32.61c4.83,12.22,19.42,18.34,32.56,13.69l52.71-18.64
							c14.77,26.03,33.16,49.91,54.58,70.94l-36.13,41.34c-8.81,10.08-7.45,24.71,3.02,32.64l27.69,20.97
							c10.35,7.84,25.76,6.04,34.42-3.99l35.94-41.58c25.06,14.5,52.33,25.84,81.34,33.44l-9.77,52.04
							c-2.33,12.4,6.18,23.76,18.96,25.38l33.78,4.27c12.62,1.6,24.68-7.05,26.99-19.31l9.66-51.48
							c29.45,0.48,58.19-2.96,85.63-9.83l17.25,47.15c4.12,11.27,16.89,16.62,28.5,11.98l30.7-12.26
							c11.48-4.58,17.51-17.35,13.49-28.53l-16.65-46.3c25.17-13.23,48.44-29.62,69.2-48.69l36.58,30.26
							c8.98,7.43,22.5,5.85,30.21-3.5l20.44-24.78c7.66-9.29,6.7-22.85-2.17-30.32l-35.29-29.75c15.4-23.07,27.9-48.37,36.89-75.47
							l44.18,7.73c11.39,1.99,22.37-5.88,24.57-17.58l5.84-31.11C3047.91,2302.46,3040.5,2291.27,3029.14,2289.16z M2633.59,2480.04
							c-127.88-19.13-215.66-137.65-191.92-264.1c23.74-126.45,148.78-206.42,275.2-179.49
							c122.12,26.02,200.04,142.75,177.74,261.53C2872.31,2416.76,2757.12,2498.52,2633.59,2480.04z"/>
						<polygon class="st1" points="2597.28,1889.82 2566.91,1883.03 2551.22,1908.45 						"/>
						<polygon class="st1" points="2898.02,1959.37 2933.2,1966.34 2928.32,1992.34 						"/>
						<polygon class="st1" points="3008.8,2110.02 3043.67,2118.03 3031.2,2136.06 						"/>
						<polygon class="st1" points="3032.1,2290.1 3067.06,2299.57 3052.24,2314.61 						"/>
						<polygon class="st1" points="2927.36,2522.51 2960.87,2533.89 2970.37,2506.57 						"/>
						<polygon class="st1" points="2771.79,2624.61 2801.65,2636.04 2808.4,2613.66 						"/>
						<polygon class="st1" points="2606.9,2650.4 2580.06,2640.27 2610.62,2609.27 						"/>
						<polygon class="st1" points="2462.12,2592.3 2431.05,2579.56 2461.67,2554.03 						"/>
						<polygon class="st1" points="2389.17,1979.15 2422.71,1986.54 2404.74,2008.63 						"/>
						<polygon class="st1" points="2272.39,2231.13 2302.46,2241.5 2304.75,2215.74 						"/>
						<polygon class="st1" points="2304.04,2428.77 2333.33,2439.36 2339.55,2419.79 						"/>
					</g>
					<path class="st2" d="M3063.29,2298.45l-43.29-8.05c2.39-29.14,0.66-57.87-4.72-85.56l40.57-14.35
						c11.09-3.92,16.96-16.36,13.14-27.8l-10.19-30.53c-3.84-11.52-16-17.76-27.18-13.93l-39.98,13.72
						c-12.39-26.72-28.48-51.73-47.78-74.28l27.48-31.79c7.89-9.12,6.88-23.27-2.26-31.63l-24.44-22.35
						c-9.24-8.45-23.23-7.9-31.24,1.26l-27.46,31.42c-24.43-17.49-51.66-31.91-81.26-42.46l7.87-41.9
						c2.32-12.36-5.88-24.75-18.36-27.69l-33.39-7.86c-12.64-2.97-24.81,4.74-27.16,17.23l-7.95,42.36
						c-31.94-3.28-63.58-1.91-94.13,3.68l-15.29-42.51c-4.49-12.49-18.35-19.61-30.97-15.87l-33.76,10.01
						c-12.77,3.79-19.41,17.09-14.8,29.68l15.94,43.55c-28.88,13.23-55.72,30.53-79.62,51.37l-37.66-31.74
						c-10.68-9-26.66-8.37-35.69,1.44l-24.09,26.18c-9.09,9.88-7.67,25.18,3.16,34.13l39.07,32.31
						c-17.31,25.57-31.08,53.87-40.49,84.4l-52.31-9.73c-14.08-2.62-27.53,5.9-29.99,19.03l-6.56,34.93
						c-2.47,13.13,7.01,25.79,21.12,28.25l53.81,9.41c-1.19,31.32,2.32,62.01,9.98,91.32l-52.43,17.99
						c-13.37,4.59-20.26,18.39-15.35,30.79l13,32.88c4.87,12.32,19.59,18.48,32.83,13.8l53.14-18.79
						c14.9,26.24,33.43,50.32,55.04,71.52l-36.43,41.68c-8.88,10.16-7.51,24.91,3.05,32.9l27.92,21.14
						c10.44,7.9,25.97,6.09,34.71-4.02l36.24-41.92c25.27,14.62,52.77,26.05,82.02,33.71l-9.85,52.47
						c-2.35,12.5,6.23,23.95,19.12,25.58l34.06,4.31c12.72,1.61,24.89-7.11,27.21-19.47l9.74-51.9c29.69,0.48,58.67-2.99,86.34-9.91
						l17.4,47.54c4.16,11.36,17.03,16.75,28.74,12.08l30.96-12.36c11.58-4.62,17.66-17.49,13.6-28.76l-16.79-46.67
						c25.37-13.33,48.84-29.86,69.77-49.09l36.89,30.5c9.06,7.49,22.69,5.89,30.46-3.53l20.61-24.98
						c7.73-9.36,6.75-23.03-2.19-30.57l-35.58-29.99c15.53-23.26,28.13-48.76,37.2-76.09l44.54,7.79
						c11.48,2.01,22.56-5.93,24.77-17.72l5.89-31.37C3082.22,2311.87,3074.75,2300.59,3063.29,2298.45z M2664.47,2490.88
						c-128.94-19.29-217.45-138.77-193.52-266.26c23.93-127.48,150.01-208.1,277.47-180.95c123.14,26.23,201.7,143.92,179.22,263.67
						C2905.16,2427.09,2789.03,2509.52,2664.47,2490.88z"/>
				</g>
			</g>
		</g>
		<g>
			<g>
				<g>
					<g>
						<g>
							<defs>
								<path id="SVGID_1_" d="M1193.28,2568.65c-23.25,38.54-63.76,90.86-107.62,151.54l732.02,105.99
									c-81.88-222.92-197.32-457.02-24.91-844.1c80.91-181.65,295.94-501.01,207.43-713.98
									c-100.83-242.64-300.32-137.86-350.94-325.72c-79.11-293.61-329.04-497.86-597.53-351.94
									c-264.99,144.01-256.1,670.21,93.07,1245.84C1348.51,2277.63,1314.68,2367.41,1193.28,2568.65z"/>
							</defs>
							<linearGradient id="SVGID_2_" gradientUnits="userSpaceOnUse" x1="1727.4398" y1="1331.9315" x2="263.8579" y2="3126.8887">
								<stop  offset="0" style="stop-color:#AA80F9"/>
								<stop  offset="0.1989" style="stop-color:#9B7BF2"/>
								<stop  offset="0.9964" style="stop-color:#6165D7"/>
							</linearGradient>
							<use xlink:href="#SVGID_1_"  style="overflow:visible;fill:url(#SVGID_2_);"/>
							<clipPath id="SVGID_3_">
								<use xlink:href="#SVGID_1_"  style="overflow:visible;"/>
							</clipPath>
							<g class="st3">
								<g>
									<path class="st4" d="M1470.25,2732.57c5.29-96.14,5.4-187.08,5.52-283.36l0.05-32.1c-2.8-46.37-4.3-92.16-5.75-136.45
										c-3.28-100-6.38-194.45-23.3-294.73c-0.33-5.86-0.36-11.55-0.39-17.57c-0.11-21.51-0.23-43.76-12.72-65.03l-0.29-0.88
										c-50.31-530.35-210.86-1059.21-477.2-1571.88l3.81-1.98c266.51,513,427.21,1042.24,477.62,1572.98
										c12.83,22.15,12.96,45.84,13.06,66.77c0.03,5.97,0.06,11.61,0.36,17.12c16.94,100.32,20.05,194.91,23.33,295.06
										c1.45,44.26,2.95,90.02,5.75,136.46l-0.04,32.23c-0.12,96.34-0.23,187.34-5.52,283.59L1470.25,2732.57z"/>
									<path class="st4" d="M1465.32,2262.28c-4.7-250.82,127.59-548.75,239.39-754.52c121.08-222.84,244.88-388.6,246.12-390.25
										l3.43,2.57c-1.23,1.65-124.88,167.2-245.81,389.77c-111.55,205.3-243.53,502.48-238.84,752.34L1465.32,2262.28z"/>
									<path class="st4" d="M1296.86,1172.23c-19.82-265.87,20.95-549.49,34.35-642.69c2.56-17.83,4.25-29.6,4.18-31.89l4.29-0.14
										c0.09,2.56-1.23,11.86-4.22,32.65c-13.38,93.08-54.1,376.35-34.31,641.76L1296.86,1172.23z"/>
									<path class="st4" d="M1392.5,1597.38c-89.72-229.06-558.78-432.15-563.5-434.17l1.69-3.94
										c4.74,2.03,475.44,205.84,565.81,436.55L1392.5,1597.38z"/>
								</g>
							</g>
						</g>
					</g>
					<g>
						<g>
							<defs>
								<path id="SVGID_4_" d="M1198.12,1759.55c3.98,339.82,167.89,227.84,319.02,261.38c174.43,252.37,190.86,486.52-69.57,688.73
									l-290.18-43.43c-107.67-5-234.01-37.9-226.88-181.27c8.06-162.15,46.41-265.13-136.61-344.76
									c-183.02-79.63-261.64-224.93-187.52-390.21c77.99-173.92-104.94-408.37,28.75-524.9
									C868.07,1022.05,1193.97,1405.7,1198.12,1759.55z"/>
							</defs>
							<linearGradient id="SVGID_5_" gradientUnits="userSpaceOnUse" x1="717.7185" y1="1447.9225" x2="1818.5848" y2="3260.2322">
								<stop  offset="3.597120e-03" style="stop-color:#E38DDD"/>
								<stop  offset="1" style="stop-color:#9571F6"/>
							</linearGradient>
							<use xlink:href="#SVGID_4_"  style="overflow:visible;fill:url(#SVGID_5_);"/>
							<clipPath id="SVGID_6_">
								<use xlink:href="#SVGID_4_"  style="overflow:visible;"/>
							</clipPath>
							<g class="st5">
								<g>
									<path class="st4" d="M1270.16,2367.68c-121.15-132.54-226.12-279.83-311.99-437.77
										c-86.61-159.3-152.62-327.33-196.2-499.41c-24.99-98.68-42.64-199.21-52.44-298.81l4.37-0.43
										c9.78,99.38,27.39,199.69,52.33,298.16c43.49,171.73,109.37,339.41,195.81,498.39c85.7,157.63,190.46,304.63,311.37,436.9
										L1270.16,2367.68z"/>
									<path class="st4" d="M957.83,2554.32l-1.99-3.91c53.9-27.46,117.47-48.87,188.96-63.64
										c34.07-7.04,67.91-11.68,100.58-13.81l0.29,4.38c-32.47,2.11-66.11,6.73-99.98,13.73
										C1074.58,2505.76,1011.38,2527.04,957.83,2554.32z"/>
									<path class="st4" d="M1014.66,2026.87c-149.84-144.95-468.82-131.7-472.01-131.53l-0.21-4.39
										c3.23-0.14,324.06-13.51,475.27,132.76L1014.66,2026.87z"/>
									<path class="st4" d="M829.89,1648.57c-44.85-231.24,128.46-498.47,130.21-501.14l3.67,2.41
										c-1.75,2.66-174.08,268.42-129.57,497.9L829.89,1648.57z"/>
								</g>
							</g>
						</g>
					</g>
				</g>
			</g>
		</g>
		<g>
			<linearGradient id="SVGID_7_" gradientUnits="userSpaceOnUse" x1="1717.6107" y1="2872.6655" x2="1535.385" y2="2949.2004">
				<stop  offset="0" style="stop-color:#40447E"/>
				<stop  offset="0.9964" style="stop-color:#3C3B6B"/>
			</linearGradient>
			<path class="st6" d="M3215.86,2772.76l-2593.81-22.8v67.46c0,18.31,11.31,33.88,26.64,36.65l733.45,132.83
				c8.7,1.58,17.53,1.99,26.31,1.25l1779.22-151.45c15.88-1.35,28.19-16.97,28.19-35.78V2772.76z"/>
			<g>
				<linearGradient id="SVGID_8_" gradientUnits="userSpaceOnUse" x1="1421.1185" y1="2062.5645" x2="1232.1807" y2="2141.9182">
					<stop  offset="0" style="stop-color:#40447E"/>
					<stop  offset="0.9964" style="stop-color:#3C3B6B"/>
				</linearGradient>
				<path class="st7" d="M2274.57,2663.41l-1625.7,123.4c-29.09,2.21-52.74-21.26-52.74-52.41V1486.08
					c0-31.16,23.65-56.42,52.74-56.42h1625.7c23.97,0,43.34,22.83,43.34,51v1128.46
					C2317.92,2637.29,2298.54,2661.59,2274.57,2663.41z"/>
				<linearGradient id="SVGID_9_" gradientUnits="userSpaceOnUse" x1="622.0494" y1="2108.3083" x2="2343.8401" y2="2108.3083">
					<stop  offset="0" style="stop-color:#40447E"/>
					<stop  offset="0.9964" style="stop-color:#3C3B6B"/>
				</linearGradient>
				<path class="st8" d="M2300.5,2663.41l-1625.7,123.4c-29.09,2.21-52.74-21.26-52.74-52.41V1486.08
					c0-31.16,23.65-56.42,52.74-56.42h1625.7c23.97,0,43.34,22.83,43.34,51v1128.46C2343.84,2637.29,2324.46,2661.59,2300.5,2663.41
					z"/>
				<linearGradient id="SVGID_10_" gradientUnits="userSpaceOnUse" x1="732.6468" y1="2663.3828" x2="2480.4668" y2="1240.109">
					<stop  offset="0" style="stop-color:#FFC444"/>
					<stop  offset="0.9964" style="stop-color:#F36F56"/>
				</linearGradient>
				<path class="st9" d="M2249.85,2583.85L735.68,2691.04c-23.67,1.68-42.91-17.58-42.91-43.02V1555.12
					c0-25.44,19.24-46.14,42.91-46.25l1514.17-6.73c19.77-0.09,35.76,18.62,35.76,41.79v995.44
					C2285.61,2562.54,2269.62,2582.45,2249.85,2583.85z"/>
				<path class="st10" d="M1545.06,1463.8c0,11.6-8.37,21.03-18.7,21.06c-10.35,0.03-18.74-9.36-18.74-20.99
					c0-11.63,8.4-21.06,18.74-21.06C1536.69,1442.81,1545.06,1452.2,1545.06,1463.8z"/>
				<path class="st11" d="M1908.81,2321.04c-125.33-72.43-223.87,19.35-318.97-71.21c-57.66-54.9-29.35-95.84-100.3-177.88
					c-78.58-90.87-129.74-60.32-208.71-142.1c-99.85-103.41-49.91-183.86-135.92-258.1c-104.34-90.07-216.87-6.7-316.2-93.08
					c-42.84-37.25-66.35-91.42-78.62-149.02h-97.19c-17.03,0-30.86,14.83-30.86,33.12v1293.99c0,18.29,13.83,32.06,30.86,30.76
					l1656.86-126.32c8.13-0.62,15.34-5.72,19.97-13.11c-121.29-4.75-195.8-48.42-243.43-93.57
					C1993.13,2466.21,2009.29,2379.11,1908.81,2321.04z"/>
			</g>
			<linearGradient id="SVGID_11_" gradientUnits="userSpaceOnUse" x1="622.0494" y1="2792.2109" x2="3215.8567" y2="2792.2109">
				<stop  offset="0" style="stop-color:#40447E"/>
				<stop  offset="0.9964" style="stop-color:#3C3B6B"/>
			</linearGradient>
			<path class="st12" d="M2365.29,2657.81L622.05,2787.71l760.09,137.66c8.7,1.58,17.53,1.99,26.31,1.25l1807.41-153.85
				l-822.83-114.06C2383.82,2657.42,2374.54,2657.13,2365.29,2657.81z"/>
			<linearGradient id="SVGID_12_" gradientUnits="userSpaceOnUse" x1="876.4157" y1="2770.7632" x2="2776.8821" y2="2770.7632">
				<stop  offset="0" style="stop-color:#40447E"/>
				<stop  offset="0.9964" style="stop-color:#3C3B6B"/>
			</linearGradient>
			<polygon class="st13" points="876.42,2790.97 2327.72,2681.22 2776.88,2742.98 1338.08,2860.3 			"/>
			<g class="st14">
				<polygon class="st10" points="1001.69,1594.69 834.96,1595.27 834.96,1541.31 1001.69,1541.31 				"/>
				<polygon class="st10" points="1875.31,1591.64 1107.6,1594.32 1107.6,1541.31 1875.31,1541.31 				"/>
				<polygon class="st10" points="1268.54,1683.34 1107.6,1684.86 1107.6,1631.85 1268.54,1630.89 				"/>
				<polygon class="st10" points="2112.77,1675.36 1370.79,1682.37 1370.79,1630.28 2112.77,1625.86 				"/>
				<polygon class="st10" points="1268.54,1772.92 1107.6,1775.4 1107.6,1722.4 1268.54,1720.48 				"/>
				<polygon class="st10" points="2112.77,1759.91 1370.79,1771.35 1370.79,1719.26 2112.77,1710.41 				"/>
				<polygon class="st10" points="1001.69,1868.21 834.96,1871.78 834.96,1817.82 1001.69,1814.84 				"/>
				<polygon class="st10" points="1875.31,1849.53 1107.6,1865.95 1107.6,1812.94 1875.31,1799.21 				"/>
				<polygon class="st10" points="1268.54,1952.09 1107.6,1956.49 1107.6,1903.48 1268.54,1899.65 				"/>
				<polygon class="st10" points="2112.77,1929 1370.79,1949.29 1370.79,1897.21 2112.77,1879.51 				"/>
				<polygon class="st10" points="1268.54,2041.67 1107.6,2047.03 1107.6,1994.03 1268.54,1989.23 				"/>
				<polygon class="st10" points="2112.77,2013.55 1370.79,2038.27 1370.79,1986.18 2112.77,1964.05 				"/>
				<polygon class="st10" points="1268.54,2131.26 1107.6,2137.58 1107.6,2084.57 1268.54,2078.81 				"/>
				<polygon class="st10" points="2112.77,2098.1 1370.79,2127.24 1370.79,2075.15 2112.77,2048.6 				"/>
				<polygon class="st10" points="1528.64,2209.07 1373.26,2216.1 1373.26,2164.02 1528.64,2157.54 				"/>
				<polygon class="st10" points="2226.07,2177.52 1627.39,2204.61 1627.39,2153.42 2226.07,2128.42 				"/>
				<polygon class="st10" points="1001.69,2324.09 834.96,2332.62 834.96,2278.67 1001.69,2270.71 				"/>
				<polygon class="st10" points="1875.31,2279.36 1107.6,2318.66 1107.6,2265.66 1875.31,2229.03 				"/>
				<polygon class="st10" points="1268.54,2400.01 1107.6,2409.21 1107.6,2356.2 1268.54,2347.56 				"/>
				<polygon class="st10" points="2112.77,2351.75 1370.79,2394.16 1370.79,2342.07 2112.77,2302.25 				"/>
				<polygon class="st10" points="1268.54,2489.59 1107.6,2499.75 1107.6,2446.74 1268.54,2437.15 				"/>
				<polygon class="st10" points="2112.77,2436.3 1370.79,2483.14 1370.79,2431.05 2112.77,2386.8 				"/>
				<polygon class="st10" points="1001.69,2597.61 834.96,2609.13 834.96,2555.17 1001.69,2544.24 				"/>
				<polygon class="st10" points="1875.31,2537.25 1107.6,2590.29 1107.6,2537.29 1875.31,2486.92 				"/>
			</g>
		</g>
		<g>
			<g>
				<linearGradient id="SVGID_13_" gradientUnits="userSpaceOnUse" x1="2645.2646" y1="30.4029" x2="2659.8589" y2="3444.7981">
					<stop  offset="0" style="stop-color:#AA80F9"/>
					<stop  offset="0.9964" style="stop-color:#6165D7"/>
				</linearGradient>
				<path class="st15" d="M2915.91,2023.24c-94.69,186.89-223.46,206.74-261.43,208.63v0.15c0,0,1.11,0.09-1.73,0.03
					c-2.83,0.06-1.73-0.03-1.73-0.03v-0.15c-34.52-1.55-124.14-15.38-209.12-125.35c-17.93-23.2-35.72-50.7-52.22-83.27
					c-110.01-217.09-30.02-328.9-30.02-328.9l291.36-0.7v-0.03l1.73,0.03l1.73-0.03v0.03l124.14,0.3l167.71,0.4
					C2946.33,1694.34,3025.92,1806.15,2915.91,2023.24z"/>
				<linearGradient id="SVGID_14_" gradientUnits="userSpaceOnUse" x1="2652.0591" y1="1430.0825" x2="2654.0894" y2="1905.0665">
					<stop  offset="0" style="stop-color:#444B8C"/>
					<stop  offset="0.9964" style="stop-color:#26264F"/>
				</linearGradient>
				<ellipse class="st16" cx="2653.21" cy="1698.87" rx="295.82" ry="37.47"/>
				<linearGradient id="SVGID_15_" gradientUnits="userSpaceOnUse" x1="2699.9009" y1="35.8846" x2="2714.4573" y2="3441.4165">
					<stop  offset="0" style="stop-color:#AA80F9"/>
					<stop  offset="0.9964" style="stop-color:#6165D7"/>
				</linearGradient>
				<path class="st17" d="M2915.91,2023.24c-94.69,186.89-223.46,206.74-261.43,208.63v0.15c0,0,1.11,0.09-1.73,0.03
					c-2.83,0.06-1.73-0.03-1.73-0.03v-0.15c-34.52-1.55-124.14-15.38-209.12-125.35c0.49-101.27,235.45-170.08,308.86-217.03
					c92.87-59.37,18.15-190.6,18.15-190.6c3.59-1.71,7.09-3.35,10.6-4.93l167.26,0.4
					C2946.77,1694.34,3025.92,1806.15,2915.91,2023.24z"/>
			</g>
			<linearGradient id="SVGID_16_" gradientUnits="userSpaceOnUse" x1="2048.8672" y1="1172.3335" x2="2357.3845" y2="1172.3335">
				<stop  offset="0" style="stop-color:#444B8C"/>
				<stop  offset="0.9964" style="stop-color:#26264F"/>
			</linearGradient>
			<ellipse class="st18" cx="2203.13" cy="1172.33" rx="154.26" ry="197.38"/>
			<linearGradient id="SVGID_17_" gradientUnits="userSpaceOnUse" x1="2092.1223" y1="1216.8018" x2="3177.3398" y2="1216.8018">
				<stop  offset="0" style="stop-color:#AA80F9"/>
				<stop  offset="0.9964" style="stop-color:#6165D7"/>
			</linearGradient>
			<path class="st19" d="M3177.34,1216.8c0,245.56-242.94,444.6-542.61,444.6c-46.04,0-90.7-4.69-133.39-13.55
				c-235.18-48.69-409.22-223.21-409.22-431.05c0-245.53,242.94-444.6,542.61-444.6c84.19,0,163.9,15.71,235.03,43.75
				C3051.74,887.72,3177.34,1040.27,3177.34,1216.8z"/>
			<path class="st0" d="M2272.38,1419.75l418.37,36.51c92.49,8.07,172.27-64.28,175.5-162.62l3.45-104.93
				c1.48-45.14-33.08-82.79-76.61-83.91l-596.41-15.38c-34.64-0.89-62.38,30.59-62.38,70.18v92.11
				C2134.31,1338.13,2195.24,1413.02,2272.38,1419.75z"/>

				<linearGradient id="SVGID_18_" gradientUnits="userSpaceOnUse" x1="4173.814" y1="1261.0996" x2="4846.481" y2="1261.0996" gradientTransform="matrix(-1 0 0 1 7010.1123 0)">
				<stop  offset="0" style="stop-color:#444B8C"/>
				<stop  offset="0.9964" style="stop-color:#26264F"/>
			</linearGradient>
			<path class="st20" d="M2262.34,1359.74L2710,1392.7c66.11,4.87,122.6-47.39,124.79-117.22l1.46-46.34
				c1.41-44.78-32.77-82.29-75.77-83.61l-533.68-16.31c-34.99-1.07-63.07,30.38-63.12,70.1l-0.05,41.13
				C2163.55,1302.45,2207.29,1355.69,2262.34,1359.74z"/>
			<path class="st2" d="M2524.79,1319.64c-4.21-6.93-6.76-14.57-6.62-22.66c0.45-26.21,26.72-46.19,58.99-44.56
				c32.65,1.65,58.91,24.73,58.3,51.48c-0.19,8.25-3.15,15.72-7.79,22.22L2524.79,1319.64z"/>
			<path class="st2" d="M2249.33,1302.29c-3.88-6.58-6.27-13.85-6.24-21.54c0.12-24.93,23.62-44.01,52.77-42.53
				c29.47,1.49,53.4,23.36,53.15,48.78c-0.08,7.84-2.66,14.95-6.78,21.14L2249.33,1302.29z"/>
			<linearGradient id="SVGID_19_" gradientUnits="userSpaceOnUse" x1="2823.1738" y1="-1788.8624" x2="2846.0391" y2="3560.5469">
				<stop  offset="0" style="stop-color:#AA80F9"/>
				<stop  offset="0.9964" style="stop-color:#6165D7"/>
			</linearGradient>
			<path class="st21" d="M3177.34,1216.8c0,245.56-242.94,444.6-542.61,444.6c-46.04,0-90.7-4.69-133.39-13.55
				c-42.2-133.21,196.3-279.3,333.46-372.38c168.04-114.03,34.95-459.52,34.95-459.52
				C3051.74,887.72,3177.34,1040.27,3177.34,1216.8z"/>
			<linearGradient id="SVGID_20_" gradientUnits="userSpaceOnUse" x1="2949.0313" y1="1249.7432" x2="3257.5488" y2="1249.7432">
				<stop  offset="0" style="stop-color:#444B8C"/>
				<stop  offset="0.9964" style="stop-color:#26264F"/>
			</linearGradient>
			<ellipse class="st22" cx="3103.29" cy="1249.74" rx="154.26" ry="197.38"/>
		</g>
		<g>
			<linearGradient id="SVGID_21_" gradientUnits="userSpaceOnUse" x1="1482.5024" y1="2045.0896" x2="1438.2128" y2="2821.3215">
				<stop  offset="0" style="stop-color:#AA80F9"/>
				<stop  offset="0.9964" style="stop-color:#6165D7"/>
			</linearGradient>
			<path class="st23" d="M1606.39,2393.23c36.57-20.27,25.87-135.3-23.75-216.14c-70.45-114.77-224.86-169.57-256.51-135.38
				c-32.4,34.98,60.86,166.3,76.01,187.64C1457.08,2306.73,1563.13,2417.2,1606.39,2393.23z"/>

				<linearGradient id="SVGID_22_" gradientUnits="userSpaceOnUse" x1="1057.7446" y1="3270.7644" x2="1168.4531" y2="3270.7644" gradientTransform="matrix(-0.9642 0.2651 0.2651 0.9642 2192.8501 -308.9189)">
				<stop  offset="0" style="stop-color:#444B8C"/>
				<stop  offset="0.9964" style="stop-color:#26264F"/>
			</linearGradient>
			<path class="st24" d="M1937.18,3126.4c-6.83,7.54-8.39,21.43-2.45,28.27c5.84,6.73,14.62,1.68,39.51,2.42
				c26.67,0.8,33.63,7.09,51.75,2.1c7.32-2.02,20.25-6.93,20.01-12.16c-0.17-3.68-6.76-5.57-28.74-12.94
				c-31.21-10.45-31.07-11.03-37.7-12.12C1962.91,3119.21,1946.2,3116.45,1937.18,3126.4z"/>

				<linearGradient id="SVGID_23_" gradientUnits="userSpaceOnUse" x1="892.4193" y1="3257.2817" x2="939.1044" y2="3160.6543" gradientTransform="matrix(-0.9802 0.1979 0.1979 0.9802 2204.0603 -227.1835)">
				<stop  offset="0" style="stop-color:#FFC444"/>
				<stop  offset="0.9964" style="stop-color:#F36F56"/>
			</linearGradient>
			<path class="st25" d="M1954.26,3082.91l13.37,44.49c-1.01,2.39-14.61,10.35-26.28,5.3l-19.86-43.18L1954.26,3082.91z"/>

				<linearGradient id="SVGID_24_" gradientUnits="userSpaceOnUse" x1="1231.1818" y1="3263.6279" x2="1341.89" y2="3263.6279" gradientTransform="matrix(-0.9642 0.2651 0.2651 0.9642 2192.8501 -308.9189)">
				<stop  offset="0" style="stop-color:#444B8C"/>
				<stop  offset="0.9964" style="stop-color:#26264F"/>
			</linearGradient>
			<path class="st26" d="M1768.06,3165.5c-6.83,7.54-8.39,21.43-2.45,28.27c5.84,6.73,14.61,1.68,39.51,2.42
				c26.67,0.8,33.63,7.09,51.75,2.1c7.32-2.02,20.25-6.93,20.01-12.16c-0.17-3.67-6.76-5.57-28.74-12.94
				c-31.21-10.45-31.07-11.03-37.7-12.12C1793.79,3158.31,1777.08,3155.54,1768.06,3165.5z"/>

				<linearGradient id="SVGID_25_" gradientUnits="userSpaceOnUse" x1="1065.9355" y1="3262.136" x2="1112.6204" y2="3165.5093" gradientTransform="matrix(-0.9802 0.1979 0.1979 0.9802 2204.0603 -227.1835)">
				<stop  offset="0" style="stop-color:#FFC444"/>
				<stop  offset="0.9964" style="stop-color:#F36F56"/>
			</linearGradient>
			<path class="st27" d="M1785.14,3122.01l13.37,44.49c-1.01,2.39-14.61,10.35-26.28,5.3l-19.86-43.18L1785.14,3122.01z"/>
			<linearGradient id="SVGID_26_" gradientUnits="userSpaceOnUse" x1="1288.2115" y1="2034.0038" x2="1243.9219" y2="2810.2351">
				<stop  offset="0" style="stop-color:#AA80F9"/>
				<stop  offset="0.9964" style="stop-color:#6165D7"/>
			</linearGradient>
			<path class="st28" d="M1032.79,2049.15c42.43-14.46,107.28-31.26,187.15-31.25c89.93,0.01,162.14,0.02,212.01,42.52
				c121.02,103.15-14.43,350.22,54.96,533.19c7.6,20.04,29.72,83.57,10.48,152.1c-3.55,12.63-10.85,23.58-23.33,42.1
				c-73.3,108.76-279.22,117.67-373.54,23.38c-49.85-49.84-94.67-40.71-95.87-97.57C999.91,2489.14,1034.74,2265.25,1032.79,2049.15
				z"/>
			<linearGradient id="SVGID_27_" gradientUnits="userSpaceOnUse" x1="1064.0646" y1="2649.2319" x2="1331.2195" y2="2310.9514">
				<stop  offset="0" style="stop-color:#AA80F9"/>
				<stop  offset="0.9964" style="stop-color:#6165D7"/>
			</linearGradient>
			<path class="st29" d="M1084.99,2319.31c-17.14-46.93,0.62-100.66-37.6-124.11c-14.01-8.59-31.41-12.24-50.37-11.82
				c2.27,164.97,5.52,329.79,9.53,501.96c1.33,56.86,8.44,59.68,63.56,109.51c63.87,57.74,173.93,76.59,268.34,57.7
				c-123.64-76.03-211.85-154.8-199.22-222.31c14.71-78.62,158.69-101.84,152.9-157.74
				C1285.98,2413.27,1122.47,2421.92,1084.99,2319.31z"/>
			<linearGradient id="SVGID_28_" gradientUnits="userSpaceOnUse" x1="1028.5157" y1="2019.1865" x2="984.226" y2="2795.4197">
				<stop  offset="0" style="stop-color:#AA80F9"/>
				<stop  offset="0.9964" style="stop-color:#6165D7"/>
			</linearGradient>
			<path class="st30" d="M1072.11,2054.22c-41.57-28.06-141.71,42.71-197.23,105c-25.8,28.95-115.64,129.75-93.32,265.15
				c3.64,22.07,20.38,125.23,108.7,175.77c79.07,45.25,185.85,33.61,271.39-30.47c11.69-10.37,23.38-20.75,35.07-31.12
				c11.5-12.43,23.01-24.86,34.51-37.3c-18.08-15.04-48.8-36.74-91.94-50.66c-65.74-21.21-108.96,10.26-124.69-10.46
				c-19.36-25.51,39.57-73.03,55.04-181.16C1073.82,2229.8,1118.54,2085.57,1072.11,2054.22z"/>
			<linearGradient id="SVGID_29_" gradientUnits="userSpaceOnUse" x1="1446.6803" y1="3055.6287" x2="1818.6193" y2="2584.6672">
				<stop  offset="0" style="stop-color:#FF9085"/>
				<stop  offset="1" style="stop-color:#FB6FBB"/>
			</linearGradient>
			<path class="st31" d="M1140.3,2760.25c-27.47,89.39,23.39,53.05,126.96,2.02c109.08-53.74,347.54-130.92,450.28-29.83
				c76.52,75.29,22.39,194.34,140.78,325.38c20.85,23.08,40.62,39.2,52.97,48.56c21.34-8.83,42.67-17.66,64.01-26.49
				c8.37-48.89,34.74-237.34-83.87-406.13c-28.68-40.81-83.23-119.15-176.58-152.3C1462.49,2431.86,1165.63,2677.81,1140.3,2760.25z
				"/>
			<linearGradient id="SVGID_30_" gradientUnits="userSpaceOnUse" x1="1668.1489" y1="2620.6431" x2="1236.6294" y2="3098.6343">
				<stop  offset="0" style="stop-color:#FF9085"/>
				<stop  offset="1" style="stop-color:#FB6FBB"/>
			</linearGradient>
			<path class="st32" d="M1039.59,2676.85c-17.78,51.34-1.78,110.35,27.28,147.01c64.5,81.38,209.3,72.82,299.74,42.77
				c110.05-36.57,134.63-103.16,177.9-86.79c67.25,25.43,19.4,191.03,140.78,325.38c20.85,23.08,40.62,39.2,52.97,48.56
				c21.34-8.83,42.67-17.66,64.01-26.49c16.11-113.84,4.34-205.05-7.93-263.31c-14.07-66.81-26.68-126.66-73.75-184.38
				c-58.49-71.72-134.91-96.9-178.76-110.73C1356.31,2510.36,1085.79,2543.45,1039.59,2676.85z"/>
			<g>
				<linearGradient id="SVGID_31_" gradientUnits="userSpaceOnUse" x1="1465.1204" y1="2745.1018" x2="1404.5336" y2="2573.439">
					<stop  offset="0" style="stop-color:#311944"/>
					<stop  offset="1" style="stop-color:#893976"/>
				</linearGradient>
				<polygon class="st33" points="1641.14,2538.04 1140.3,2530.56 1273.48,2594.84 1642.42,2570.69 				"/>
				<linearGradient id="SVGID_32_" gradientUnits="userSpaceOnUse" x1="1200.4437" y1="2496.3889" x2="1222.6589" y2="2649.8755">
					<stop  offset="0" style="stop-color:#311944"/>
					<stop  offset="1" style="stop-color:#893976"/>
				</linearGradient>
				<path class="st34" d="M1122.62,2543.87L1122.62,2543.87c0,9.38,5.87,17.75,14.67,20.95l160.04,62.74l0.73-43.5l-157.76-53.5
					C1131.44,2528.02,1122.62,2534.66,1122.62,2543.87z"/>
			</g>
			<linearGradient id="SVGID_33_" gradientUnits="userSpaceOnUse" x1="1193.7803" y1="2530.0154" x2="1319.3347" y2="2530.0154">
				<stop  offset="0" style="stop-color:#FFC444"/>
				<stop  offset="0.9964" style="stop-color:#F36F56"/>
			</linearGradient>
			<path class="st35" d="M1194.13,2523.77c-3.07-0.69,14.98-36.65,29.15-32.5c14.17,4.15,83.46,44.31,89.76,60.85
				c6.3,16.54,6.3,16.54,6.3,16.54s-30.23,2.36-48.98-3.94C1251.61,2558.42,1219.12,2529.34,1194.13,2523.77z"/>
			<g>
				<g>
					<linearGradient id="SVGID_34_" gradientUnits="userSpaceOnUse" x1="1640.6261" y1="2509.8318" x2="1522.504" y2="2342.0986">
						<stop  offset="0" style="stop-color:#444B8C"/>
						<stop  offset="0.9964" style="stop-color:#26264F"/>
					</linearGradient>
					<path class="st36" d="M1311.35,2278.88l-35.3,321.44c-1.22,11.09,14.31,27.62,25.45,27.09l517.9-31.79
						c8.51-0.4,15.6-6.67,17.04-15.06l65-310.45c1.94-11.3-18.37-22.97-29.83-22.65l-542.73,15.26
						C1319.82,2262.97,1312.34,2269.87,1311.35,2278.88z"/>
					<linearGradient id="SVGID_35_" gradientUnits="userSpaceOnUse" x1="1414.047" y1="2787.4272" x2="1672.5514" y2="2262.3406">
						<stop  offset="0" style="stop-color:#311944"/>
						<stop  offset="1" style="stop-color:#893976"/>
					</linearGradient>
					<path class="st37" d="M1323.18,2288.25l-35.31,321.44c-1.22,11.09,7.76,20.65,18.91,20.12l524.45-24.83
						c8.51-0.4,15.59-6.67,17.04-15.06l53.58-311.88c1.94-11.3-6.94-21.55-18.41-21.23l-542.73,15.26
						C1331.66,2272.34,1324.17,2279.24,1323.18,2288.25z"/>
				</g>
				<linearGradient id="SVGID_36_" gradientUnits="userSpaceOnUse" x1="1287.7681" y1="2450.4094" x2="1855.668" y2="2450.4094">
					<stop  offset="0" style="stop-color:#311944"/>
					<stop  offset="1" style="stop-color:#893976"/>
				</linearGradient>
				<path class="st38" d="M1631.14,2529.67c-45.79-19.41-29.63-56.42-83.71-102.54c-71.34-60.84-144.05-34.46-169.51-81.62
					c-7.93-14.69-11.71-37.54,2.09-74.53l-39.3,1.1c-9.06,0.25-16.55,7.16-17.54,16.17l-35.31,321.44
					c-1.21,11.09,7.77,20.65,18.91,20.12l524.45-24.83c8.51-0.4,15.59-6.67,17.04-15.06l7.39-43.04
					c-15.91-8.86-34.93-16.91-57.11-21.41C1721.61,2509.88,1683.86,2552.01,1631.14,2529.67z"/>
			</g>
			<g>

					<linearGradient id="SVGID_37_" gradientUnits="userSpaceOnUse" x1="1644.1843" y1="1836.4943" x2="1656.6906" y2="1503.3719" gradientTransform="matrix(0.917 0.3988 -0.3988 0.917 399.6047 -184.8945)">
					<stop  offset="0" style="stop-color:#FFC444"/>
					<stop  offset="0.9964" style="stop-color:#F36F56"/>
				</linearGradient>
				<path class="st39" d="M1228.34,1895.03c0.28,33.34-3.44,59.78-6.96,77.88c-4.03,20.75-6.93,26.1-10.64,30.45
					c-5.58,6.55-14.03,12.04-61.81,23.88c-26,6.44-29.34,6.27-29.92,8.85c-2.8,12.59,68.09,55.48,141.32,45.14
					c44.82-6.33,85.6-31.9,83.1-45.33c-2.52-13.51-47.29-6.26-60.64-30.71c-9.28-17.01,1.12-41.15,13.42-61.15
					C1284.31,1921.73,1240.25,1917.36,1228.34,1895.03z"/>
				<g>

						<linearGradient id="SVGID_38_" gradientUnits="userSpaceOnUse" x1="848.1857" y1="1900.1848" x2="763.3954" y2="1684.8329" gradientTransform="matrix(-0.9687 -0.2485 -0.2485 0.9687 2456.1904 427.3052)">
						<stop  offset="0" style="stop-color:#311944"/>
						<stop  offset="1" style="stop-color:#6B3976"/>
					</linearGradient>
					<path class="st40" d="M1322.39,1937.43c13.78-10.93,20.59-34.51,12.7-52.58c-6.79-15.56-22.28-21.56-31.55-25.15
						c-26.88-10.42-64.85-7.95-83.66,14.38c-11.14,13.24-3.73,48.7-2.76,54.98c1.1,7.1,5.54,10.6,8.92,16.63
						c4.68,8.37,11.97,21.63,23.75,43.71c2.64-4.92,6.28-10.92,11.19-17.16c1.89-2.4,9.42-11.76,18.91-18.67
						C1298.93,1939.71,1309.33,1947.79,1322.39,1937.43z"/>

						<linearGradient id="SVGID_39_" gradientUnits="userSpaceOnUse" x1="628.0769" y1="1735.8794" x2="624.1773" y2="2050.0659" gradientTransform="matrix(0.982 0.1887 -0.1887 0.982 983.7829 102.0635)">
						<stop  offset="0" style="stop-color:#FFC444"/>
						<stop  offset="0.9964" style="stop-color:#F36F56"/>
					</linearGradient>
					<path class="st41" d="M1230.28,1968.32c0,0,10.43,34.63,47.32,41.72c33.02,6.34,56.74-65.24,40.03-86.1
						c-5.58-6.96-18.88-12.71-30.97-12.48c-7.14,0.13-10.12,2.31-21.79,2.3c-10.77-0.01-13.33-1.87-17.04-0.1
						c-4.64,2.21-9.48,9.34-8.66,32.29c-4.56-7.89-11.37-12.23-17.29-11.11c-0.94,0.18-3.57,1.11-5.42,3.09
						C1209.75,1945.05,1214.58,1957.65,1230.28,1968.32z"/>

						<linearGradient id="SVGID_40_" gradientUnits="userSpaceOnUse" x1="822.2794" y1="1910.4933" x2="737.4065" y2="1694.9315" gradientTransform="matrix(-0.9687 -0.2485 -0.2485 0.9687 2456.1904 427.3052)">
						<stop  offset="0" style="stop-color:#311944"/>
						<stop  offset="1" style="stop-color:#6B3976"/>
					</linearGradient>
					<path class="st42" d="M1247.49,1908.92c1.26,1.57-5.05,6.17-7.56,14.35c-4.88,15.87,6.35,39.37,22.5,45.32
						c9.55,3.52,13.78-1.69,30.43,0.82c10.3,1.55,18.32,5,23.28,7.52c0.51,18.93-8.86,35.24-22.74,40.32
						c-14.95,5.47-29.75-4.07-35.94-8.05c-4.14-2.67-17.41-11.18-21.53-26.46c-4.29-15.92,5.64-22.25-0.98-33.99
						c-3.34-5.92-8.81-9.53-12.27-20.21c-0.94-2.9-1.43-5.38-1.69-7.03C1231.69,1914.82,1245.67,1906.64,1247.49,1908.92z"/>

						<linearGradient id="SVGID_41_" gradientUnits="userSpaceOnUse" x1="739.2111" y1="1780.6069" x2="743.625" y2="1819.9573" gradientTransform="matrix(-0.9687 -0.2485 -0.2485 0.9687 2456.1904 427.3052)">
						<stop  offset="0" style="stop-color:#FFC444"/>
						<stop  offset="1" style="stop-color:#F36F56"/>
					</linearGradient>
					<path class="st43" d="M1302.66,1980.38c0,0-7.97,1.84-19.91-2c-0.58-0.19-1.28-0.18-1.43,0.1c-0.58,1.08,5.85,8.26,13.54,8.11
						c5.46-0.11,10.67-3.89,10.31-5.29C1305.01,1980.71,1303.84,1980.48,1302.66,1980.38z"/>
				</g>
			</g>
		</g>
	</g>
</g>
</svg>
