<?xml version="1.0" encoding="UTF-8"?><svg id="Layer_2" xmlns="http://www.w3.org/2000/svg" width="414.78" height="368.5" viewBox="0 0 414.78 368.5"><defs><style>.cls-1{fill:#fff;}.cls-2{fill:#2081c1;}</style></defs><g id="Layer_1-2"><g><path class="cls-2" d="M29.76,368.5c-1.93,0-3.49-1.73-3.49-3.86v-77.58c0-2.13,1.56-3.86,3.49-3.86h10.98c1.93,0,3.49,1.73,3.49,3.86v64.56h37.37c1.93,0,3.49,1.73,3.49,3.86v9.15c0,2.13-1.56,3.86-3.49,3.86H29.76Z"/><polygon class="cls-2" points="40.74 287.07 29.76 287.07 29.76 364.65 81.6 364.65 81.6 355.49 40.74 355.49 40.74 287.07"/><path class="cls-2" d="M150.7,368.5c-1.37,0-2.61-.88-3.18-2.26l-8.75-21.23h-30.14l-8.2,21.16c-.55,1.42-1.81,2.34-3.21,2.34h-11.66c-1.19,0-2.29-.67-2.94-1.77-.64-1.1-.74-2.49-.24-3.68l31.86-77.58c.57-1.38,1.81-2.26,3.18-2.26h11.83c1.34,0,2.56,.85,3.15,2.18l33.96,77.58c.52,1.19,.45,2.6-.19,3.73-.64,1.12-1.76,1.81-2.96,1.81h-12.51Zm-18.45-39.57l-6.47-16.06c-.83-2.05-1.6-4-2.3-5.84-.51,1.52-1.07,3.04-1.66,4.54l-6.95,17.36h17.38Z"/><path class="cls-2" d="M117.43,287.07l-31.86,77.58h11.66l9.11-23.49h34.69l9.68,23.49h12.51l-33.96-77.58h-11.83Zm-7.92,45.72l9.11-22.75c1.92-4.9,3.41-9.84,4.47-14.82,1.28,4.2,3.24,9.56,5.89,16.09l8.66,21.48h-28.13Z"/><path class="cls-2" d="M186.75,368.5c-1.93,0-3.49-1.73-3.49-3.86v-31.52l-31.22-43.66c-.83-1.16-.99-2.74-.4-4.07,.58-1.33,1.8-2.18,3.14-2.18h13.36c1.08,0,2.1,.55,2.76,1.5l16.36,23.39c1.99,2.89,3.9,5.79,5.71,8.67,1.87-2.88,3.96-5.98,6.24-9.25l16.08-22.82c.66-.94,1.68-1.49,2.76-1.49h12.79c1.35,0,2.58,.86,3.16,2.21,.58,1.35,.4,2.94-.45,4.09l-32.32,43.65v31.48c0,2.13-1.56,3.86-3.49,3.86h-10.98Z"/><path class="cls-2" d="M201.98,309.88c-3.55,5.08-6.56,9.65-9.06,13.71-2.6-4.37-5.41-8.75-8.43-13.12l-16.36-23.39h-13.36l31.98,44.71v32.86h10.98v-32.86l33.11-44.71h-12.79l-16.07,22.81Z"/><path class="cls-2" d="M240.91,368.5c-1.93,0-3.49-1.73-3.49-3.86v-77.58c0-2.13,1.56-3.86,3.49-3.86h59.99c1.93,0,3.49,1.73,3.49,3.86v9.15c0,2.13-1.56,3.86-3.49,3.86h-45.52v16.04h42.4c1.93,0,3.49,1.73,3.49,3.86v9.1c0,2.13-1.56,3.86-3.49,3.86h-42.4v18.69h47.44c1.93,0,3.49,1.73,3.49,3.86v9.15c0,2.13-1.56,3.86-3.49,3.86h-61.91Z"/><polygon class="cls-2" points="251.89 329.09 297.79 329.09 297.79 319.98 251.89 319.98 251.89 296.23 300.9 296.23 300.9 287.07 240.91 287.07 240.91 364.65 302.83 364.65 302.83 355.49 251.89 355.49 251.89 329.09"/><path class="cls-2" d="M377.47,368.5c-1.1,0-2.13-.57-2.79-1.54l-10.98-16.14c-3.1-4.51-5.7-8.01-7.69-10.38-2.25-2.68-3.79-3.88-4.69-4.42-1.33-.8-2.69-1.36-4.04-1.67-.62-.12-2.15-.29-5.4-.29h-9.24v30.59c0,2.13-1.56,3.86-3.49,3.86h-10.98c-1.93,0-3.49-1.73-3.49-3.86v-77.58c0-2.13,1.56-3.86,3.49-3.86h36.79c7.84,0,13.71,.75,17.95,2.28,4.55,1.65,8.24,4.61,10.97,8.79,2.73,4.18,4.11,8.88,4.11,13.95,0,6.62-2.31,12.27-6.88,16.79-2.65,2.62-6.02,4.63-10.19,6.06,3.06,2.79,5.98,6.18,8.7,10.1l14.45,21.14c.8,1.17,.93,2.73,.34,4.04-.59,1.31-1.8,2.14-3.13,2.14h-13.81Zm-24.73-51.05c4.65,0,8.26-.43,10.73-1.28,2.14-.73,3.68-1.82,4.71-3.31,1-1.46,1.49-2.97,1.49-4.62,0-2.44-.91-4.34-2.88-5.96-2.19-1.81-6.13-2.77-11.4-2.77h-22.77v17.95h20.11Z"/><path class="cls-2" d="M376.85,343.53c-2.87-4.13-5.9-7.57-9.11-10.32-1.51-1.27-3.72-2.56-6.62-3.86,7.96-1.02,13.85-3.42,17.66-7.2,3.81-3.77,5.72-8.41,5.72-13.92,0-4.27-1.15-8.17-3.45-11.69s-5.38-5.99-9.22-7.38c-3.85-1.39-9.47-2.09-16.86-2.09h-36.79v77.58h10.98v-34.45h12.73c2.83,0,4.87,.12,6.11,.37,1.7,.39,3.37,1.08,5.01,2.06,1.64,.99,3.5,2.72,5.57,5.19,2.07,2.47,4.72,6.03,7.92,10.69l10.98,16.14h13.81l-14.43-21.11Zm-24.11-22.23h-23.6v-25.66h26.26c6.15,0,10.65,1.18,13.5,3.55,2.85,2.36,4.27,5.38,4.27,9.05,0,2.5-.74,4.82-2.21,6.96-1.47,2.14-3.62,3.69-6.45,4.66-2.83,.97-6.75,1.46-11.77,1.46Z"/></g><g><polygon class="cls-2" points="26.66 0 393.98 0 393.98 81.93 414.78 75.66 384.23 95.91 406.33 89.16 394.63 102.17 393.98 270.37 26.66 272.3 26.66 206.27 0 212.05 41.61 184.1 13 194.7 27.31 179.28 26.66 0"/><path class="cls-1" d="M54.29,27.11l-8.29-7.59H114.26V227.72h27.31l1.95-208.2h58.19V238.08c-.44,1.29-1.26,3.16-2.93,5.18-3.14,3.81-7.28,5.72-9.08,6.54-4.81,2.17-9.4,2.78-12.05,2.98H78.67c-2.99-.48-10.45-2-16.74-6.99-4.33-3.43-6.27-7.05-7.15-9.16-.16-69.84-.33-139.68-.49-209.52Z"/><path class="cls-1" d="M221.78,202.9l58.35-16.87v41.63h30.15v-75.48l28.28-16.02-115.8,33.37-.98-141.33-9.75-8.67h132.63c2.27,.03,8.37,.32,14.38,3.48,6.46,3.39,8.81,7.97,9.51,9.53v36.87l-58.27,17.17-.65-42.59-28.93,.12V119.04l-27.63,15.9,115.48-31.81V237.84c-.81,1.91-2.87,5.88-7.96,9.4-6.03,4.16-12.72,5.23-15.36,5.54h-98.98c-2.68-.22-10.81-1.16-17.63-6.17-4.62-3.39-6.57-7.13-7.4-9.13,.19-11.53,.38-23.05,.57-34.58Z"/></g></g></svg>