<?xml version="1.0" encoding="UTF-8"?>
<svg id="Layer_2" data-name="Layer 2" xmlns="http://www.w3.org/2000/svg" viewBox="0 0 131.08 130.74">
  <defs>
    <style>
      .cls-1 {
        fill: #f15a29;
      }

      .cls-2 {
        fill: #27aae1;
      }

      .cls-3 {
        fill: #fff200;
      }
    </style>
  </defs>
  <g id="Layer_1-2" data-name="Layer 1">
    <g>
      <g>
        <rect class="cls-2" width="63.07" height="63.07" rx="10" ry="10" transform="translate(63.07 0) rotate(90)"/>
        <path class="cls-1" d="m28.58,52.91c-4.21,0-7.66-.65-10.24-1.94-2.67-1.33-4.71-3.26-6.05-5.74-1.32-2.44-1.97-5.8-1.97-10.28V9.46c0-1.04.85-1.89,1.89-1.89h10.4c1.04,0,1.89.85,1.89,1.89v25.48c0,2.46.24,3.65.44,4.22.21.6.64,1.06,1.35,1.45.82.45,1.89.68,3.18.68,1.48,0,2.66-.23,3.51-.68.71-.38,1.16-.83,1.36-1.38.16-.43.43-1.57.43-4.3V9.46c0-1.04.85-1.89,1.89-1.89h8.21c1.04,0,1.89.85,1.89,1.89v25.48c0,4.44-.52,7.71-1.59,9.99-1.12,2.39-3.16,4.35-6.06,5.83-2.79,1.42-6.34,2.14-10.56,2.14Z"/>
      </g>
      <g>
        <rect class="cls-1" x="68.01" y="0" width="63.07" height="63.07" rx="10" ry="10" transform="translate(131.08 -68.01) rotate(90)"/>
        <path class="cls-3" d="m96.68,54.52c-4.55,0-8.49-1.07-11.74-3.17-3.35-2.17-5.58-5.41-6.63-9.63-.12-.49-.04-1.02.22-1.45.27-.43.7-.74,1.19-.85l8.87-2.01c.14-.03.28-.05.42-.05.84,0,1.61.57,1.83,1.41.52,2.01,1.74,4.31,6.49,4.31,1.72,0,3.02-.3,3.74-.87.79-.63.9-1.16.9-1.56,0-.57-.18-.91-.63-1.22-.43-.29-1.65-.88-4.98-1.58-5.57-1.16-9.49-2.74-11.97-4.83-2.65-2.24-4-5.48-4-9.64s1.53-7.72,4.56-10.58c3-2.83,7.06-4.26,12.07-4.26,8.87,0,14.68,3.66,17.27,10.88.17.48.14,1.01-.08,1.46-.22.46-.62.81-1.1.97l-8.15,2.73c-.2.07-.4.1-.6.1-.79,0-1.52-.5-1.79-1.29-.84-2.47-2.43-3.57-5.18-3.57-3.79,0-3.79,1.26-3.79,1.8,0,.46.14.8.48,1.12.07.07.76.66,3.87,1.28,4.35.88,7.47,1.75,9.56,2.68,2.25,1,4.16,2.61,5.68,4.8,1.55,2.22,2.33,4.74,2.33,7.48,0,4.22-1.63,7.91-4.86,10.96-3.2,3.03-7.89,4.57-13.96,4.57Z"/>
      </g>
      <g>
        <rect class="cls-3" x="30.5" y="67.67" width="63.07" height="63.07" rx="10" ry="10" transform="translate(161.23 37.17) rotate(90)"/>
        <path class="cls-2" d="m49.03,121.56c-1.04,0-1.89-.85-1.89-1.89v-40.92c0-1.05.85-1.89,1.89-1.89h9.71c1.04,0,1.89.85,1.89,1.89v30.93h14.39c1.04,0,1.89.85,1.89,1.89v8.09c0,1.05-.85,1.89-1.89,1.89h-25.99Z"/>
      </g>
    </g>
  </g>
</svg>