<svg id="Layer_1" data-name="Layer 1" xmlns="http://www.w3.org/2000/svg" width="84.91mm" height="22mm" viewBox="0 0 240.7 62.37"><defs><style>.cls-1{fill:#2484c6;stroke:#fff;}.cls-1,.cls-2{stroke-miterlimit:10;}.cls-2{fill:#fff;stroke:#2484c6;}</style></defs><path class="cls-1" d="M94.47,16,74.18,77.25H32.83q-18,.34-12.45-19.47L34.2,16.08H50.4L37.52,54.28q-2.46,5.94,3.09,5.55H63.14L77.6,16.08Z" transform="translate(-18.56 -15.53)"/><path class="cls-1" d="M148.16,32H114.32a33.81,33.81,0,0,0-5.38.33A6.8,6.8,0,0,0,105.07,35c-.17,2,.36,3.1,1.58,3.34a32.66,32.66,0,0,0,5.86.37h16.55q9.83.57,12.59,5.77T141.36,59q-3.63,9.3-9.71,13.74t-17.79,4.6H76.92l5.19-15.67h35.1a56.2,56.2,0,0,0,7-.33c1.64-.22,3-1.39,4.07-3.51.18-1.69-.39-2.7-1.73-3a33.2,33.2,0,0,0-7-.5h-16q-10.56,0-13.76-5.15t-.18-14.28q3.91-9.57,10.11-13.89t17.58-4.84H153.4Z" transform="translate(-18.56 -15.53)"/><path class="cls-2" d="M112.4,46.75l-1.9,18.8a2.72,2.72,0,0,0,2.79,3l18.4,0-.79,8.51H110q-9.87-.5-8.69-11.36l1.92-19Z" transform="translate(-18.56 -15.53)"/><path class="cls-2" d="M132.17,76.87l2.05-20.55q1.41-9.27,11.18-9.68l10.22,0q8.88.6,8.34,9.59l-2.07,20.65h-8l.92-9.18-13.41-.07-.9,9.21ZM142.54,57l-.35,3.21h13.39l.28-2.52q.64-3.49-2-3.9l-8.1,0Q142.49,53.87,142.54,57Z" transform="translate(-18.56 -15.53)"/><path class="cls-2" d="M195.59,46.82,193.15,71.2q-.5,5.34-6.7,6.16l-23.31,0,.72-8.08,18.17,0a2.63,2.63,0,0,0,3-2.63l0-.17H173.1q-8.85.21-8.38-9.63l1-10.07,8,0L173,55.09c-.2,1.73.44,2.67,1.94,2.83h11.08l1.18-11.1Z" transform="translate(-18.56 -15.53)"/><path class="cls-2" d="M224.28,77H203q-9.14-.54-7.73-15.08t11.31-15h20.67l-.73,7.33-18.32,0c-1.55-.06-2.48.33-2.78,1.16l-.74,2.59,21.49,0-.77,7.24-21.32-.08,0,1.7c.06,1.44.58,2.21,1.55,2.33l19.38,0Z" transform="translate(-18.56 -15.53)"/><path class="cls-2" d="M228.82,46.77h20.91q9.5,1.57,9,10.26a12.25,12.25,0,0,1-5,10.07L257.92,77H247.86l-4.1-9.51h-8l-.93,9.4-9.06,0Zm7.89,12.79,11.11,0a2.68,2.68,0,0,0,2.92-2.45c.25-1.6-.53-2.54-2.32-2.81H237.23Z" transform="translate(-18.56 -15.53)"/></svg>