<?xml version="1.0" encoding="UTF-8"?><svg id="Layer_2" xmlns="http://www.w3.org/2000/svg" width="385.11" height="73.51" viewBox="0 0 385.11 73.51"><defs><style>.cls-1{fill:#fff;}.cls-2{fill:#7228F5;}.cls-3{fill:#7228F5;}</style></defs><g id="Layer_1-2"><g><g><polygon class="cls-2" points="5.33 0 78.85 0 78.85 22.12 83.01 20.43 76.9 25.89 81.32 24.07 78.98 27.58 78.85 72.99 5.33 73.51 5.33 55.69 0 57.25 8.33 49.7 2.6 52.57 5.46 48.4 5.33 0"/><g><path class="cls-1" d="M10.86,7.32l-1.66-2.05h13.66V61.48h5.46l.39-56.21h11.65v59.01c-.09,.35-.25,.85-.59,1.4-.63,1.03-1.46,1.55-1.82,1.76-.96,.58-1.88,.75-2.41,.81H15.74c-.6-.13-2.09-.54-3.35-1.89-.87-.93-1.25-1.9-1.43-2.47-.03-18.86-.07-37.71-.1-56.57Z"/><path class="cls-1" d="M44.38,54.78l11.68-4.55v11.24h6.03v-20.38l5.66-4.33-23.18,9.01-.2-38.16-1.95-2.34h26.54c.46,0,1.68,.09,2.88,.94,1.29,.92,1.76,2.15,1.9,2.57v9.95l-11.66,4.64-.13-11.5-5.79,.03v20.23l-5.53,4.29,23.11-8.59v36.37c-.16,.52-.57,1.59-1.59,2.54-1.21,1.12-2.55,1.41-3.07,1.5h-19.81c-.54-.06-2.16-.31-3.53-1.67-.93-.92-1.32-1.92-1.48-2.46,.04-3.11,.08-6.22,.11-9.34Z"/></g></g><g><path class="cls-3" d="M93.53,71.74c-1.54,0-2.79-1.42-2.79-3.17V4.94c0-1.75,1.25-3.17,2.79-3.17h8.77c1.54,0,2.79,1.42,2.79,3.17V57.9h29.85c1.54,0,2.79,1.42,2.79,3.17v7.51c0,1.75-1.25,3.17-2.79,3.17h-41.41Z"/><polygon class="cls-3" points="102.3 4.94 93.53 4.94 93.53 68.58 134.94 68.58 134.94 61.07 102.3 61.07 102.3 4.94"/><path class="cls-3" d="M190.14,71.74c-1.09,0-2.09-.73-2.54-1.85l-6.99-17.42h-24.08l-6.55,17.35c-.44,1.16-1.45,1.92-2.57,1.92h-9.31c-.95,0-1.83-.55-2.35-1.45-.51-.9-.59-2.04-.2-3.02L161.02,3.63c.45-1.13,1.45-1.86,2.54-1.86h9.45c1.07,0,2.05,.69,2.51,1.79l27.12,63.64c.42,.98,.36,2.14-.15,3.06-.51,.92-1.4,1.48-2.36,1.48h-9.99Zm-14.74-32.46l-5.17-13.17c-.66-1.68-1.28-3.28-1.84-4.79-.41,1.25-.85,2.49-1.32,3.72l-5.55,14.24h13.89Z"/><path class="cls-3" d="M163.56,4.94l-25.45,63.64h9.31l7.28-19.27h27.71l7.73,19.27h9.99L173.01,4.94h-9.45Zm-6.33,37.51l7.28-18.67c1.54-4.02,2.73-8.07,3.57-12.15,1.02,3.44,2.59,7.84,4.7,13.2l6.92,17.62h-22.47Z"/><path class="cls-3" d="M218.94,71.74c-1.54,0-2.79-1.42-2.79-3.17v-25.86L191.21,6.9c-.66-.95-.79-2.25-.32-3.34,.47-1.09,1.44-1.78,2.51-1.78h10.67c.86,0,1.68,.45,2.21,1.23l13.06,19.19c1.59,2.37,3.12,4.75,4.56,7.11,1.49-2.36,3.16-4.9,4.99-7.59l12.85-18.72c.53-.77,1.34-1.22,2.2-1.22h10.22c1.08,0,2.06,.7,2.52,1.81,.46,1.1,.32,2.41-.36,3.36l-25.82,35.81v25.83c0,1.75-1.25,3.17-2.79,3.17h-8.77Z"/><path class="cls-3" d="M231.1,23.65c-2.83,4.17-5.24,7.92-7.23,11.24-2.08-3.59-4.32-7.18-6.74-10.77l-13.06-19.19h-10.67l25.54,36.68v26.96h8.77v-26.96L254.15,4.94h-10.22l-12.84,18.71Z"/><path class="cls-3" d="M262.2,71.74c-1.54,0-2.79-1.42-2.79-3.17V4.94c0-1.75,1.25-3.17,2.79-3.17h47.92c1.54,0,2.79,1.42,2.79,3.17v7.51c0,1.75-1.25,3.17-2.79,3.17h-36.36v13.16h33.87c1.54,0,2.79,1.42,2.79,3.17v7.47c0,1.75-1.25,3.17-2.79,3.17h-33.87v15.33h37.9c1.54,0,2.79,1.42,2.79,3.17v7.51c0,1.75-1.25,3.17-2.79,3.17h-49.46Z"/><polygon class="cls-3" points="270.97 39.41 307.64 39.41 307.64 31.94 270.97 31.94 270.97 12.45 310.12 12.45 310.12 4.94 262.2 4.94 262.2 68.58 311.66 68.58 311.66 61.07 270.97 61.07 270.97 39.41"/><path class="cls-3" d="M371.29,71.74c-.88,0-1.7-.47-2.23-1.26l-8.77-13.24c-2.48-3.7-4.55-6.57-6.14-8.52-1.8-2.2-3.03-3.19-3.74-3.63-1.06-.66-2.15-1.12-3.23-1.37-.5-.1-1.72-.24-4.32-.24h-7.38v25.09c0,1.75-1.25,3.17-2.79,3.17h-8.77c-1.54,0-2.79-1.42-2.79-3.17V4.94c0-1.75,1.25-3.17,2.79-3.17h29.39c6.26,0,10.95,.61,14.34,1.87,3.63,1.35,6.58,3.78,8.76,7.21,2.18,3.43,3.28,7.28,3.28,11.44,0,5.43-1.85,10.06-5.49,13.77-2.11,2.15-4.81,3.8-8.14,4.97,2.45,2.29,4.78,5.07,6.95,8.28l11.54,17.34c.64,.96,.74,2.24,.27,3.32-.47,1.08-1.44,1.75-2.5,1.75h-11.03Zm-19.76-41.88c3.71,0,6.6-.35,8.57-1.05,1.71-.6,2.94-1.49,3.76-2.71,.8-1.2,1.19-2.44,1.19-3.79,0-2-.73-3.56-2.3-4.89-1.75-1.49-4.9-2.27-9.11-2.27h-18.19v14.72h16.06Z"/><path class="cls-3" d="M370.79,51.26c-2.29-3.39-4.72-6.21-7.28-8.47-1.21-1.04-2.97-2.1-5.29-3.17,6.36-.84,11.06-2.81,14.11-5.9,3.04-3.1,4.57-6.9,4.57-11.42,0-3.5-.92-6.7-2.76-9.59s-4.29-4.91-7.37-6.06c-3.07-1.14-7.57-1.71-13.47-1.71h-29.39v63.64h8.77v-28.26h10.17c2.26,0,3.89,.1,4.88,.3,1.36,.32,2.69,.88,4,1.69,1.31,.81,2.8,2.23,4.45,4.25,1.66,2.03,3.77,4.95,6.33,8.77l8.77,13.24h11.03l-11.53-17.32Zm-19.26-18.23h-18.85V11.97h20.98c4.91,0,8.51,.97,10.78,2.91,2.28,1.94,3.41,4.41,3.41,7.42,0,2.05-.59,3.96-1.76,5.71-1.18,1.75-2.89,3.02-5.15,3.82-2.26,.8-5.4,1.19-9.4,1.19Z"/></g></g></g></svg>