<svg xmlns="http://www.w3.org/2000/svg" width="40" height="32" class="d-block me-2" viewBox="0 0 19.4 19.8" role="img"><defs></defs><path fill-rule="evenodd" clip-rule="evenodd" d="M15.65,0H3.75A3.75,3.75,0,0,0,0,3.75v12.3A3.75,3.75,0,0,0,3.75,19.8h11.9a3.75,3.75,0,0,0,3.75-3.75V3.75A3.75,3.75,0,0,0,15.65,0ZM3.43,13.92C2,14,1.51,13.13,2,11.46L3.6,6.19H5.52L4,11c-.19.5-.07.73.37.7H7L8.76,6.19h2L8.35,13.92ZM17.16,8.2h-4a3.6,3.6,0,0,0-.64,0,.81.81,0,0,0-.46.34c0,.25,0,.39.19.42a3.59,3.59,0,0,0,.69.05h2a1.64,1.64,0,0,1,1.5.73,2.5,2.5,0,0,1,0,1.83,3.79,3.79,0,0,1-1.16,1.73,3.43,3.43,0,0,1-2.12.58H8.68l.62-2h4.17a6.16,6.16,0,0,0,.84,0c.19,0,.35-.17.48-.44s0-.34-.21-.38a3.12,3.12,0,0,0-.83-.07h-1.9c-.84,0-1.38-.21-1.64-.65a2.24,2.24,0,0,1,0-1.8A3.71,3.71,0,0,1,11.4,6.81a3.78,3.78,0,0,1,2.09-.62h4.29Z" fill="currentColor"></path></svg>
