<svg xmlns="http://www.w3.org/2000/svg" width="40" height="35" viewBox="0 0 273.35 242.07">
  <path fill="currentColor" d="M273.35,67.27l-13.71,5.57V0H17.57l.43,159.38-9.43,13.71,18.85-9.43L0,188.52l17.57-5.14v58.7l242.07-1.71,.43-149.53,7.71-11.57-14.57,6,20.14-17.99ZM132.93,211.65c-.29,1.14-.83,2.81-1.93,4.61-2.07,3.39-4.8,5.09-5.98,5.81-3.17,1.93-6.19,2.47-7.94,2.65H51.84c-1.97-.43-6.89-1.78-11.03-6.21-2.85-3.05-4.13-6.26-4.71-8.14l-.32-186.27-5.46-6.75h44.99V202.44h17.99l1.29-185.09h38.35V211.65ZM242.87,61.7l-38.4,15.26-.43-37.86-19.07,.11V105.83l-18.21,14.14,76.1-28.28v119.75c-.53,1.7-1.89,5.22-5.25,8.35-3.97,3.7-8.39,4.65-10.12,4.93h-65.23c-1.77-.2-7.12-1.04-11.62-5.49-3.05-3.02-4.33-6.34-4.87-8.11,.12-10.25,.25-20.49,.37-30.74l38.45-15v37.01h19.87v-67.11l18.64-14.25-76.32,29.67-.64-125.64-6.43-7.71h87.4c1.5,.02,5.52,.29,9.48,3.09,4.26,3.01,5.81,7.09,6.27,8.48V61.7Z"/>
</svg>
