<svg xmlns="http://www.w3.org/2000/svg" viewBox="0 0 20.4 20.8"><defs><style>.a{fill:#fff;stroke:#2484c6;stroke-miterlimit:10;}.b{opacity:0.99;}.c{fill:#2484c6;}</style></defs><rect class="a" x="0.5" y="0.5" width="19.4" height="19.8" rx="3.75"/><g class="b"><path class="c" d="M11.27,6.69,8.85,14.42H3.93C2.5,14.45,2,13.63,2.45,12L4.1,6.69H6L4.49,11.52c-.19.5-.07.73.37.7H7.54L9.26,6.69Z"/><path class="c" d="M17.66,8.7h-4a3.6,3.6,0,0,0-.64,0,.81.81,0,0,0-.46.34c0,.25,0,.39.19.42a3.59,3.59,0,0,0,.69.05h2a1.64,1.64,0,0,1,1.5.73,2.5,2.5,0,0,1,0,1.83,3.79,3.79,0,0,1-1.16,1.73,3.43,3.43,0,0,1-2.12.58H9.18l.62-2H14a6.16,6.16,0,0,0,.84,0c.19,0,.35-.17.48-.44s0-.34-.21-.38a3.12,3.12,0,0,0-.83-.07h-1.9c-.84,0-1.38-.21-1.64-.65a2.24,2.24,0,0,1,0-1.8A3.71,3.71,0,0,1,11.9,7.31,3.78,3.78,0,0,1,14,6.69h4.29Z"/></g></svg>