<?xml version="1.0" standalone="no"?>
<!DOCTYPE svg PUBLIC "-//W3C//DTD SVG 20010904//EN"
 "http://www.w3.org/TR/2001/REC-SVG-20010904/DTD/svg10.dtd">
<svg version="1.0" xmlns="http://www.w3.org/2000/svg"
 width="666.000000pt" height="666.000000pt" viewBox="0 0 666.000000 666.000000"
 preserveAspectRatio="xMidYMid meet">
<metadata>
Created by potrace 1.14, written by Peter Selinger 2001-2017
</metadata>
<g transform="translate(0.000000,666.000000) scale(0.100000,-0.100000)"
fill="#000000" stroke="none">
<path d="M433 4339 l7 -1940 -110 -161 c-60 -89 -108 -163 -106 -165 2 -2 99
43 215 101 116 59 211 105 211 103 0 -2 -144 -133 -319 -292 -176 -159 -319
-291 -317 -292 2 -2 217 59 399 113 16 5 17 -33 17 -712 l0 -717 663 7 c364 3
1686 13 2937 22 1251 8 2280 17 2286 19 9 3 13 464 16 1822 l3 1818 93 138
c51 75 89 137 84 137 -5 0 -78 -29 -163 -64 -85 -35 -156 -62 -159 -60 -2 3 0
8 6 12 25 16 444 395 441 399 -2 2 -62 -21 -134 -51 -71 -29 -140 -57 -151
-61 l-22 -6 0 885 0 886 -2952 0 -2951 0 6 -1941z m1397 -734 l0 -2255 219 0
219 0 6 292 c3 161 11 1171 17 2243 6 1073 12 1956 14 1963 4 9 106 12 470 12
l465 0 0 -2370 0 -2369 -21 -56 c-42 -113 -183 -226 -317 -254 -36 -7 -304
-11 -846 -11 -757 0 -795 1 -849 19 -129 45 -232 133 -291 251 l-36 73 0 942
c0 518 -3 1543 -7 2278 l-6 1336 -59 71 c-32 40 -58 76 -58 81 0 5 222 9 540
9 l540 0 0 -2255z m3770 2245 c125 -24 246 -115 296 -223 l24 -54 -2 -399 -3
-398 -455 -183 c-250 -100 -461 -182 -467 -182 -10 -1 -13 48 -13 212 0 116
-3 323 -7 460 l-6 247 -122 0 c-67 0 -170 -3 -228 -7 l-107 -6 0 -807 0 -807
-215 -167 c-118 -92 -215 -169 -215 -172 0 -2 10 1 23 6 48 21 1800 670 1808
670 5 0 9 -649 9 -1459 l0 -1458 -35 -71 c-59 -117 -180 -212 -306 -241 -63
-15 -1601 -15 -1671 0 -139 29 -268 128 -327 253 l-32 66 8 377 8 378 465 182
465 181 3 -449 2 -449 240 0 240 0 2 817 3 818 202 155 c224 172 241 186 203
172 -14 -6 -425 -166 -914 -356 -489 -190 -892 -343 -895 -341 -2 3 -8 692
-13 1531 l-8 1526 -75 88 c-41 49 -75 91 -75 94 0 11 2134 7 2190 -4z"/>
</g>
</svg>
